<svg version="1.1" viewBox="0.0 0.0 960.0 540.0" fill="none" stroke="none" stroke-linecap="square" stroke-miterlimit="10" xmlns:xlink="http://www.w3.org/1999/xlink" xmlns="http://www.w3.org/2000/svg"><clipPath id="p.0"><path d="m0 0l960.0 0l0 540.0l-960.0 0l0 -540.0z" clip-rule="nonzero"/></clipPath><g clip-path="url(#p.0)"><path fill="#050133" d="m0 0l960.0 0l0 540.0l-960.0 0z" fill-rule="evenodd"/><path fill="#ead1dc" fill-opacity="0.75" d="m261.27216 246.73819l0 0c1.6264343 0.36528015 3.2395325 -0.6573944 3.6029968 -2.2842102l9.864929 -44.15599c0.17453003 -0.78123474 0.03164673 -1.6001434 -0.3972168 -2.276596c-0.42886353 -0.67645264 -1.108551 -1.1550293 -1.8895874 -1.3304443l0 0l0 0c-1.6264038 -0.3652954 -3.2395325 0.65737915 -3.6029663 2.2842102l-9.864929 44.155975c-0.36346436 1.626831 0.6603699 3.2417603 2.2867737 3.6070557z" fill-rule="evenodd"/><path fill="#d5a6bd" fill-opacity="0.75" d="m242.27206 257.74875l0 0c1.6264191 0.3652954 3.2395172 -0.65737915 3.6029663 -2.2842255l9.864944 -44.155975c0.17453003 -0.78123474 0.03164673 -1.6001587 -0.39720154 -2.276596c-0.42886353 -0.67645264 -1.1085663 -1.1550293 -1.8896027 -1.3304596l0 0l0 0c-1.6264191 -0.36528015 -3.2395172 0.6573944 -3.6029663 2.2842102l-9.864929 44.15599c-0.3634491 1.626831 0.66038513 3.2417603 2.286789 3.6070557z" fill-rule="evenodd"/><path fill="#ead1dc" fill-opacity="0.75" d="m57.815235 59.221344l0 0c1.6264114 0.3652916 3.2395172 -0.65738297 3.6029663 -2.2842102l9.864933 -44.155987c0.17453766 -0.78123 0.031654358 -1.6001463 -0.39720154 -2.276599c-0.4288559 -0.6764517 -1.1085663 -1.1550283 -1.889595 -1.3304472l0 0l0 0c-1.6264114 -0.36529064 -3.2395172 0.6573858 -3.6029663 2.2842112l-9.864933 44.155987c-0.3634491 1.6268272 0.6603813 3.2417564 2.2867966 3.6070442z" fill-rule="evenodd"/><path fill="#d5a6bd" fill-opacity="0.75" d="m88.84195 218.47142l0 0c1.6264114 0.3652954 3.2395096 -0.65737915 3.6029663 -2.2842102l9.864929 -44.155975c0.17453766 -0.78123474 0.031654358 -1.6001587 -0.39720154 -2.2766113c-0.4288559 -0.67645264 -1.1085663 -1.1550293 -1.889595 -1.3304443l0 0l0 0c-1.6264114 -0.3652954 -3.2395172 0.6573944 -3.6029663 2.2842102l-9.864929 44.15599c-0.36345673 1.626831 0.6603775 3.2417603 2.2867966 3.6070404z" fill-rule="evenodd"/><path fill="#d5a6bd" fill-opacity="0.75" d="m86.186226 187.67659l0 0c1.6264191 0.3652954 3.2395172 -0.65737915 3.6029663 -2.2842102l9.864937 -44.15599c0.17453003 -0.7812195 0.031654358 -1.6001434 -0.39720154 -2.276596c-0.4288559 -0.67645264 -1.1085663 -1.1550293 -1.889595 -1.3304443l0 0l0 0c-1.6264191 -0.3652954 -3.2395172 0.65737915 -3.6029663 2.2842102l-9.864937 44.15599c-0.3634491 1.6268158 0.66038513 3.241745 2.2867966 3.6070404z" fill-rule="evenodd"/><path fill="#d5a6bd" fill-opacity="0.75" d="m69.11672 57.347527l0 0c1.6264114 0.3652916 3.2395096 -0.6573868 3.6029663 -2.2842102l9.864929 -44.15599c0.17453766 -0.781229 0.031654358 -1.6001453 -0.39720154 -2.276598c-0.4288559 -0.67645216 -1.1085663 -1.1550283 -1.889595 -1.3304472l0 0l0 0c-1.6264114 -0.36529064 -3.2395172 0.65738535 -3.6029663 2.2842112l-9.864929 44.155987c-0.36345673 1.6268272 0.6603775 3.2417564 2.2867966 3.607048z" fill-rule="evenodd"/><path fill="#ead1dc" fill-opacity="0.75" d="m284.9633 101.27621l0 0c1.6264038 0.36528778 3.239502 -0.6573868 3.6029663 -2.2842102l9.864929 -44.15599c0.17453003 -0.7812271 0.03164673 -1.6001472 -0.39718628 -2.2766c-0.42886353 -0.6764488 -1.1085815 -1.1550255 -1.8896179 -1.3304443l0 0l0 0c-1.6264038 -0.3652916 -3.239502 0.65738297 -3.6029663 2.2842102l-9.864929 44.155987c-0.36343384 1.6268234 0.6604004 3.2417526 2.2868042 3.607048z" fill-rule="evenodd"/><path fill="#d5a6bd" fill-opacity="0.75" d="m297.7257 90.23654l0 0c1.6264038 0.36528778 3.239502 -0.6573868 3.6029663 -2.2842102l9.864929 -44.155987c0.17453003 -0.7812309 0.03164673 -1.6001472 -0.39718628 -2.2766c-0.42886353 -0.67645264 -1.1085815 -1.1550293 -1.8896179 -1.3304482l0 0l0 0c-1.6264038 -0.36528778 -3.239502 0.6573868 -3.6029663 2.2842102l-9.864929 44.155987c-0.36343384 1.626831 0.6604004 3.2417603 2.2868042 3.607048z" fill-rule="evenodd"/><path fill="#d5a6bd" fill-opacity="0.75" d="m210.478 167.15178l0 0c1.6264038 0.36528015 3.2395172 -0.6573944 3.6029663 -2.2842102l9.864929 -44.15599c0.17453003 -0.78123474 0.031661987 -1.6001511 -0.39720154 -2.2766037c-0.42886353 -0.676445 -1.1085663 -1.1550217 -1.8896027 -1.3304443l0 0l0 0c-1.6264038 -0.36528778 -3.2395172 0.6573868 -3.6029663 2.2842102l-9.864929 44.155983c-0.3634491 1.626831 0.66038513 3.2417603 2.2868042 3.6070557z" fill-rule="evenodd"/><path fill="#ead1dc" fill-opacity="0.75" d="m703.2736 57.345535l0 0c1.6264038 0.36528778 3.239502 -0.6573868 3.6029663 -2.284214l9.864929 -44.155987c0.17456055 -0.781229 0.031677246 -1.6001463 -0.3972168 -2.276599c-0.428833 -0.6764517 -1.1085205 -1.1550279 -1.8895874 -1.3304467l0 0l0 0c-1.6264038 -0.36529064 -3.239502 0.65738535 -3.6029663 2.2842107l-9.864929 44.155987c-0.36346436 1.6268272 0.6604004 3.2417564 2.2868042 3.607048z" fill-rule="evenodd"/><path fill="#d5a6bd" fill-opacity="0.75" d="m683.27704 87.113625l0 0c1.6264038 0.36528778 3.239502 -0.6573868 3.6029663 -2.2842102l9.864929 -44.15599c0.17449951 -0.7812309 0.031677246 -1.6001472 -0.3972168 -2.2766c-0.428833 -0.6764488 -1.1085815 -1.1550255 -1.8895874 -1.3304443l0 0l0 0c-1.6264038 -0.3652916 -3.239502 0.65738297 -3.6029663 2.2842102l-9.864929 44.155987c-0.36346436 1.6268234 0.6604004 3.2417526 2.2868042 3.607048z" fill-rule="evenodd"/><path fill="#ead1dc" fill-opacity="0.75" d="m655.9126 241.23294l0 0c1.6264038 0.36528015 3.239502 -0.6573944 3.6029663 -2.2842102l9.864929 -44.15599c0.17456055 -0.78123474 0.031677246 -1.6001434 -0.3972168 -2.276596c-0.428833 -0.67645264 -1.1085815 -1.1550293 -1.8895874 -1.3304443l0 0l0 0c-1.6264038 -0.3652954 -3.239502 0.65737915 -3.6029663 2.2842102l-9.864929 44.155975c-0.36346436 1.626831 0.6604004 3.2417603 2.2868042 3.6070557z" fill-rule="evenodd"/><path fill="#d5a6bd" fill-opacity="0.75" d="m636.9125 252.24348l0 0c1.6264038 0.3652954 3.239502 -0.65737915 3.6029663 -2.2842102l9.864929 -44.155975c0.17456055 -0.78123474 0.031677246 -1.6001587 -0.39715576 -2.2766113c-0.42889404 -0.6764374 -1.1085815 -1.155014 -1.8896484 -1.3304443l0 0l0 0c-1.6264038 -0.36528015 -3.239502 0.6573944 -3.6029663 2.2842102l-9.864929 44.15599c-0.36340332 1.626831 0.6604004 3.2417603 2.2868042 3.6070404z" fill-rule="evenodd"/><path fill="#d5a6bd" fill-opacity="0.75" d="m901.40674 281.0321l0 0c1.6264038 0.3652954 3.239502 -0.65737915 3.6029663 -2.2842102l9.864929 -44.15599c0.17456055 -0.7812195 0.031677246 -1.6001434 -0.3972168 -2.276596c-0.428833 -0.67645264 -1.1085205 -1.1550293 -1.8895874 -1.3304443l0 0l0 0c-1.6264038 -0.3652954 -3.239502 0.65737915 -3.6029663 2.2842102l-9.864929 44.155975c-0.36346436 1.626831 0.6604004 3.2417603 2.2868042 3.6070557z" fill-rule="evenodd"/><path fill="#ead1dc" fill-opacity="0.75" d="m910.29004 316.18082l0 0c1.6264038 0.3652954 3.239502 -0.65737915 3.6029663 -2.2842102l9.864929 -44.155975c0.17449951 -0.78125 0.031677246 -1.6001587 -0.3972168 -2.2766113c-0.428833 -0.67645264 -1.1085815 -1.1550293 -1.8895874 -1.3304443l0 0l0 0c-1.6264038 -0.3652954 -3.239502 0.65737915 -3.6029663 2.2842102l-9.864929 44.155975c-0.36346436 1.626831 0.6604004 3.2417603 2.2868042 3.6070557z" fill-rule="evenodd"/><path fill="#d5a6bd" fill-opacity="0.75" d="m755.7785 155.18065l0 0c1.6264038 0.3652954 3.239502 -0.6573944 3.6029663 -2.2842102l9.864929 -44.15599c0.17456055 -0.7812271 0.031677246 -1.6001434 -0.39715576 -2.276596c-0.42889404 -0.67645264 -1.1085815 -1.1550293 -1.8896484 -1.330452l0 0l0 0c-1.6264038 -0.36528778 -3.239502 0.6573868 -3.6029663 2.2842102l-9.864929 44.156c-0.36340332 1.6268158 0.6604004 3.241745 2.2868042 3.6070404z" fill-rule="evenodd"/><path fill="#ead1dc" fill-opacity="0.75" d="m877.55493 92.83141l0 0c1.6264038 0.36528778 3.239502 -0.6573868 3.6029663 -2.2842178l9.864929 -44.155983c0.17456055 -0.7812309 0.031677246 -1.6001472 -0.3972168 -2.2766c-0.428833 -0.67645264 -1.1085205 -1.1550293 -1.8895874 -1.3304482l0 0l0 0c-1.6264038 -0.36528778 -3.239502 0.6573868 -3.6029663 2.2842102l-9.864929 44.15599c-0.36346436 1.6268234 0.6604004 3.2417526 2.2868042 3.607048z" fill-rule="evenodd"/><path fill="#d5a6bd" fill-opacity="0.75" d="m888.77625 87.640724l0 0c1.6264038 0.3652954 3.239502 -0.65737915 3.6029663 -2.2842102l9.864929 -44.155983c0.17456055 -0.7812309 0.031677246 -1.6001472 -0.3972168 -2.2766c-0.428833 -0.67645264 -1.1085205 -1.1550293 -1.8895874 -1.3304482l0 0l0 0c-1.6264038 -0.3652916 -3.239502 0.6573868 -3.6029663 2.2842102l-9.864929 44.15599c-0.36346436 1.6268234 0.6604004 3.2417526 2.2868042 3.6070404z" fill-rule="evenodd"/><path fill="#d5a6bd" fill-opacity="0.75" d="m814.3234 218.63278l0 0c1.6264038 0.3652954 3.239502 -0.65737915 3.6029663 -2.2842102l9.864929 -44.15599c0.17456055 -0.7812195 0.031677246 -1.6001434 -0.39715576 -2.276596c-0.42889404 -0.67645264 -1.1085815 -1.1550293 -1.8896484 -1.3304443l0 0l0 0c-1.6264038 -0.3652954 -3.239502 0.65737915 -3.6029663 2.2842102l-9.864929 44.15599c-0.36340332 1.626831 0.6604004 3.2417603 2.2868042 3.6070404z" fill-rule="evenodd"/><path fill="#ead1dc" fill-opacity="0.75" d="m831.5597 206.55183l0 0c1.6264038 0.36528015 3.239502 -0.6573944 3.6029663 -2.2842255l9.864929 -44.155975c0.17449951 -0.78123474 0.03161621 -1.6001587 -0.3972168 -2.276596c-0.428833 -0.67645264 -1.1085815 -1.1550293 -1.8895874 -1.3304596l0 0l0 0c-1.6264038 -0.36528015 -3.239502 0.6573944 -3.6029663 2.2842102l-9.864929 44.15599c-0.36346436 1.626831 0.6604004 3.2417603 2.2868042 3.6070557z" fill-rule="evenodd"/><path fill="#d5a6bd" fill-opacity="0.75" d="m207.93228 518.21063l0 0c1.6264038 0.3652954 3.2395172 -0.65740967 3.6029663 -2.2842407l9.864929 -44.155975c0.17453003 -0.7812195 0.031661987 -1.6001282 -0.39720154 -2.2765808c-0.42886353 -0.67645264 -1.1085663 -1.1550293 -1.8896027 -1.3304443l0 0l0 0c-1.6264038 -0.3652954 -3.2395172 0.65737915 -3.6029663 2.2842102l-9.864929 44.155975c-0.3634491 1.626831 0.66038513 3.2417603 2.2868042 3.6070557z" fill-rule="evenodd"/><path fill="#d5a6bd" fill-opacity="0.75" d="m188.93217 529.2212l0 0c1.6264191 0.3652954 3.2395172 -0.65740967 3.6029663 -2.2842407l9.864929 -44.155975c0.17454529 -0.7812195 0.031661987 -1.6001282 -0.39720154 -2.2765808c-0.42884827 -0.67645264 -1.1085663 -1.1550293 -1.8895874 -1.3304443l0 0l0 0c-1.6264191 -0.3652954 -3.2395172 0.65737915 -3.6029663 2.2842102l-9.864929 44.155975c-0.36346436 1.626831 0.6603699 3.2417603 2.286789 3.6070557z" fill-rule="evenodd"/><path fill="#d5a6bd" fill-opacity="0.75" d="m280.92538 416.3146l0 0c1.6264038 0.3652954 3.239502 -0.65737915 3.6029663 -2.2842102l9.864929 -44.155975c0.17453003 -0.78125 0.03164673 -1.6001587 -0.3972168 -2.2766113c-0.42886353 -0.67645264 -1.108551 -1.1550293 -1.8895874 -1.3304443l0 0l0 0c-1.6264038 -0.3652954 -3.2395325 0.65737915 -3.6029663 2.2842102l-9.864929 44.155975c-0.36346436 1.626831 0.6603699 3.2417603 2.2868042 3.6070557z" fill-rule="evenodd"/><path fill="#ead1dc" fill-opacity="0.75" d="m285.54236 449.62366l0 0c1.6264038 0.3652954 3.239502 -0.65737915 3.6029663 -2.2842102l9.864929 -44.155975c0.17453003 -0.7812195 0.03164673 -1.6001587 -0.39718628 -2.2766113c-0.42886353 -0.67645264 -1.1085815 -1.1550293 -1.8896179 -1.3304443l0 0l0 0c-1.6264038 -0.3652954 -3.239502 0.65737915 -3.6029663 2.2842102l-9.864929 44.156006c-0.36343384 1.6268005 0.6604004 3.2417297 2.2868042 3.6070251z" fill-rule="evenodd"/><path fill="#d5a6bd" fill-opacity="0.75" d="m23.208935 331.8985l0 0c1.6264133 0.3652954 3.2395172 -0.65737915 3.6029682 -2.2842102l9.864931 -44.155975c0.17453384 -0.7812195 0.031658173 -1.6001587 -0.39719772 -2.2766113c-0.4288597 -0.67645264 -1.1085663 -1.1550293 -1.8895988 -1.3304443l0 0l0 0c-1.6264114 -0.3652954 -3.2395172 0.65740967 -3.6029663 2.2842102l-9.864931 44.156006c-0.363451 1.626831 0.6603813 3.2417603 2.2867947 3.6070251z" fill-rule="evenodd"/><path fill="#ead1dc" fill-opacity="0.75" d="m57.193653 489.18008l0 0c1.6264114 0.3652954 3.2395172 -0.65737915 3.6029663 -2.2842102l9.864933 -44.155975c0.17453003 -0.78125 0.031654358 -1.6001587 -0.39720154 -2.2766113c-0.4288559 -0.67645264 -1.1085663 -1.1550293 -1.889595 -1.3304443l0 0l0 0c-1.6264114 -0.3652954 -3.2395172 0.65737915 -3.6029663 2.2842102l-9.864933 44.155975c-0.3634529 1.626831 0.6603813 3.2417603 2.2867966 3.6070557z" fill-rule="evenodd"/><path fill="#ead1dc" fill-opacity="0.75" d="m54.537933 458.38525l0 0c1.6264153 0.3652954 3.2395172 -0.65737915 3.6029701 -2.2842102l9.864933 -44.155975c0.17453003 -0.78125 0.031654358 -1.6001587 -0.39720154 -2.2766113c-0.4288559 -0.67645264 -1.1085663 -1.1550293 -1.889595 -1.3304443l0 0l0 0c-1.6264191 -0.3652954 -3.239521 0.65737915 -3.6029701 2.2842102l-9.864933 44.155975c-0.3634491 1.626831 0.66038513 3.2417603 2.2867966 3.6070557z" fill-rule="evenodd"/><path fill="#ead1dc" fill-opacity="0.75" d="m34.510418 330.0247l0 0c1.6264153 0.3652954 3.2395172 -0.65737915 3.6029701 -2.2842102l9.864929 -44.155975c0.17453384 -0.78125 0.031658173 -1.6001587 -0.39719772 -2.2766113c-0.4288597 -0.67645264 -1.1085663 -1.1550293 -1.8895988 -1.3304443l0 0l0 0c-1.6264114 -0.3652954 -3.2395172 0.65737915 -3.6029663 2.2842102l-9.864933 44.155975c-0.3634491 1.626831 0.66038513 3.2417603 2.2867966 3.6070557z" fill-rule="evenodd"/><path fill="#d5a6bd" fill-opacity="0.75" d="m198.43338 155.18065l0 0c1.6264038 0.3652954 3.2395172 -0.6573944 3.6029663 -2.2842102l9.864929 -44.15599c0.17453003 -0.7812271 0.03164673 -1.6001434 -0.39720154 -2.276596c-0.42886353 -0.67645264 -1.1085663 -1.1550293 -1.8896027 -1.330452l0 0l0 0c-1.6264038 -0.36528778 -3.2395172 0.6573868 -3.6029663 2.2842102l-9.864929 44.156c-0.3634491 1.6268158 0.66038513 3.241745 2.2868042 3.6070404z" fill-rule="evenodd"/><path fill="#ead1dc" fill-opacity="0.75" d="m702.1934 503.0269l0 0c1.6264038 0.3652954 3.239502 -0.65737915 3.6029663 -2.2842102l9.864929 -44.155975c0.17456055 -0.7812195 0.031677246 -1.6001587 -0.39715576 -2.2766113c-0.42889404 -0.67645264 -1.1085815 -1.1550293 -1.8896484 -1.3304443l0 0l0 0c-1.6264038 -0.3652954 -3.239502 0.65740967 -3.6029663 2.2842102l-9.864929 44.156006c-0.36340332 1.626831 0.6604004 3.2417603 2.2868042 3.6070251z" fill-rule="evenodd"/><path fill="#d5a6bd" fill-opacity="0.75" d="m683.19336 514.0375l0 0c1.6264038 0.3652954 3.239502 -0.65740967 3.6029663 -2.2842407l9.864929 -44.155975c0.17449951 -0.7812195 0.03161621 -1.6001587 -0.3972168 -2.2766113c-0.42889404 -0.67645264 -1.1085815 -1.1550293 -1.8895874 -1.3304443l0 0l0 0c-1.6264038 -0.3652954 -3.239563 0.65737915 -3.6029663 2.2842102l-9.864929 44.156006c-0.36346436 1.626831 0.66033936 3.2417603 2.2868042 3.6070557z" fill-rule="evenodd"/><path fill="#ead1dc" fill-opacity="0.75" d="m896.9645 500.63577l0 0c1.6264038 0.3652954 3.239502 -0.65737915 3.6029663 -2.2842102l9.864929 -44.155975c0.17456055 -0.7812195 0.031677246 -1.6001587 -0.3972168 -2.2766113c-0.428833 -0.67645264 -1.1085205 -1.1550293 -1.8895874 -1.3304443l0 0l0 0c-1.6264038 -0.3652954 -3.239502 0.65737915 -3.6029663 2.2842102l-9.864929 44.156006c-0.36346436 1.6268005 0.6604004 3.2417297 2.2868042 3.6070251z" fill-rule="evenodd"/><path fill="#ead1dc" fill-opacity="0.75" d="m905.8478 535.7845l0 0c1.6264038 0.3652954 3.239502 -0.65734863 3.6029663 -2.2841797l9.864929 -44.156006c0.17449951 -0.7812195 0.031677246 -1.6001587 -0.3972168 -2.2766113c-0.428833 -0.67645264 -1.1085815 -1.1550293 -1.8895874 -1.3304443l0 0l0 0c-1.6264038 -0.3652954 -3.239502 0.65737915 -3.6029663 2.2842102l-9.864929 44.155975c-0.36346436 1.626831 0.6604004 3.2417603 2.2868042 3.6070557z" fill-rule="evenodd"/><path fill="#ead1dc" fill-opacity="0.75" d="m749.399 357.5649l0 0c1.6264038 0.3652954 3.239502 -0.65737915 3.6029663 -2.2842102l9.864929 -44.155975c0.17456055 -0.7812195 0.031677246 -1.6001587 -0.3972168 -2.2766113c-0.428833 -0.67645264 -1.1085815 -1.1550293 -1.8895874 -1.3304443l0 0l0 0c-1.6264038 -0.3652954 -3.239502 0.65737915 -3.6029663 2.2842102l-9.864929 44.156006c-0.36346436 1.6268005 0.6604004 3.2417297 2.2868042 3.6070251z" fill-rule="evenodd"/><path fill="#d5a6bd" fill-opacity="0.75" d="m762.1614 346.52527l0 0c1.6264648 0.3652649 3.239563 -0.65740967 3.6029663 -2.2842102l9.864929 -44.156006c0.17456055 -0.7812195 0.031677246 -1.6001282 -0.39715576 -2.2765808c-0.42889404 -0.67645264 -1.1085815 -1.1550293 -1.8895874 -1.3304749l0 0l0 0c-1.6264648 -0.3652649 -3.239563 0.65740967 -3.6029663 2.2842407l-9.86499 44.155975c-0.36340332 1.626831 0.6604004 3.2417603 2.2868042 3.6070557z" fill-rule="evenodd"/><path fill="#d5a6bd" fill-opacity="0.75" d="m636.9137 423.39062l0 0c1.6264038 0.3652954 3.239502 -0.65737915 3.6029663 -2.2842102l9.864929 -44.156006c0.17449951 -0.7812195 0.031677246 -1.6001282 -0.3972168 -2.2765808c-0.428833 -0.67645264 -1.1085815 -1.1550293 -1.8895874 -1.3304443l0 0l0 0c-1.6264038 -0.3652954 -3.239502 0.65737915 -3.6029663 2.2842102l-9.864929 44.155975c-0.36346436 1.626831 0.6604004 3.2417603 2.2868042 3.6070557z" fill-rule="evenodd"/><path fill="#d5a6bd" fill-opacity="0.75" d="m831.3943 449.26532l0 0c1.6264038 0.3652954 3.239563 -0.65737915 3.6029663 -2.2842102l9.864929 -44.155975c0.17456055 -0.7812195 0.031677246 -1.6001587 -0.39715576 -2.2766113c-0.42889404 -0.67645264 -1.1085815 -1.1550293 -1.8896484 -1.3304443l0 0l0 0c-1.6264038 -0.3652954 -3.239502 0.65740967 -3.6029663 2.2842102l-9.864929 44.156006c-0.36340332 1.626831 0.6604004 3.2417603 2.2868042 3.6070251z" fill-rule="evenodd"/><path fill="#ead1dc" fill-opacity="0.75" d="m848.63055 437.1844l0 0c1.6264038 0.3652649 3.239502 -0.65740967 3.6029663 -2.2842407l9.864929 -44.155975c0.17449951 -0.7812195 0.031677246 -1.6001282 -0.3972168 -2.2765808c-0.428833 -0.67645264 -1.1085815 -1.1550293 -1.8895874 -1.3304749l0 0l0 0c-1.6264038 -0.3652649 -3.239502 0.65740967 -3.6029663 2.2842102l-9.864929 44.156006c-0.36346436 1.626831 0.6604004 3.2417603 2.2868042 3.6070557z" fill-rule="evenodd"/><path fill="#ead1dc" fill-opacity="0.75" d="m146.59384 362.03082l0 0c1.6264191 0.3652954 3.2395172 -0.65737915 3.6029663 -2.2842102l9.864929 -44.155975c0.17454529 -0.78125 0.031661987 -1.6001587 -0.39718628 -2.2766113c-0.42886353 -0.67645264 -1.1085663 -1.1550293 -1.8896027 -1.3304443l0 0l0 0c-1.6264191 -0.3652954 -3.2395172 0.65737915 -3.6029663 2.2842102l-9.864929 44.155975c-0.3634491 1.626831 0.66038513 3.2417603 2.286789 3.6070557z" fill-rule="evenodd"/><path fill="#d5a6bd" fill-opacity="0.75" d="m160.22289 346.52524l0 0c1.6264038 0.3652649 3.2395172 -0.65740967 3.6029663 -2.2842102l9.864929 -44.156006c0.17453003 -0.7812195 0.031661987 -1.6001282 -0.39720154 -2.2765808c-0.42886353 -0.67645264 -1.1085663 -1.1550293 -1.8896027 -1.3304443l0 0l0 0c-1.6264038 -0.3652954 -3.2395172 0.65737915 -3.6029663 2.2842102l-9.864929 44.155975c-0.3634491 1.626831 0.66038513 3.2417603 2.2868042 3.6070557z" fill-rule="evenodd"/></g></svg>