<svg version="1.1" viewBox="0.0 0.0 960.0 540.0" fill="none" stroke="none" stroke-linecap="square" stroke-miterlimit="10" xmlns:xlink="http://www.w3.org/1999/xlink" xmlns="http://www.w3.org/2000/svg"><clipPath id="p.0"><path d="m0 0l960.0 0l0 540.0l-960.0 0l0 -540.0z" clip-rule="nonzero"/></clipPath><g clip-path="url(#p.0)"><path fill="#050133" d="m0 0l960.0 0l0 540.0l-960.0 0z" fill-rule="evenodd"/><path fill="#ead1dc" d="m124.63322 140.67387l0 0c1.6264114 0.36528015 3.2395172 -0.6573944 3.6029587 -2.2842102l9.864944 -44.156c0.17453003 -0.7812271 0.03164673 -1.6001434 -0.39720154 -2.276596c-0.42886353 -0.67645264 -1.1085663 -1.1550293 -1.8896027 -1.3304443l0 0l0 0c-1.6264191 -0.3652954 -3.2395172 0.6573868 -3.6029663 2.2842102l-9.864929 44.155983c-0.3634491 1.626831 0.66038513 3.2417603 2.2867966 3.6070557z" fill-rule="evenodd"/><path fill="#ead1dc" d="m211.47047 71.50826l0 0c1.6264038 0.36528778 3.2395172 -0.6573868 3.6029663 -2.2842102l9.864929 -44.155987c0.17453003 -0.781229 0.031661987 -1.6001472 -0.39720154 -2.2766c-0.42886353 -0.6764507 -1.1085663 -1.1550274 -1.8896027 -1.3304462l0 0l0 0c-1.6264038 -0.3652916 -3.2395172 0.6573849 -3.6029663 2.2842102l-9.864929 44.155983c-0.3634491 1.626831 0.66038513 3.2417603 2.2868042 3.607048z" fill-rule="evenodd"/><path fill="#ead1dc" d="m191.47388 101.27635l0 0c1.6264191 0.36528778 3.2395172 -0.6573868 3.6029663 -2.2842102l9.864929 -44.155987c0.17454529 -0.7812309 0.031661987 -1.6001472 -0.39720154 -2.2766c-0.42884827 -0.67645264 -1.1085663 -1.1550293 -1.8895874 -1.3304482l0 0l0 0c-1.6264191 -0.3652916 -3.2395172 0.6573868 -3.6029663 2.2842102l-9.864944 44.155987c-0.3634491 1.626831 0.66038513 3.2417603 2.2868042 3.607048z" fill-rule="evenodd"/><path fill="#ead1dc" d="m162.15948 203.25735l0 0c1.6264038 0.3652954 3.2395172 -0.6573944 3.6029663 -2.2842102l9.864929 -44.15599c0.17453003 -0.78123474 0.031661987 -1.6001434 -0.39720154 -2.276596c-0.42886353 -0.67645264 -1.1085663 -1.1550293 -1.8896027 -1.3304443l0 0l0 0c-1.6264038 -0.3652954 -3.2395172 0.65737915 -3.6029663 2.2842102l-9.864929 44.15599c-0.3634491 1.6268158 0.66038513 3.241745 2.2868042 3.6070404z" fill-rule="evenodd"/><path fill="#ead1dc" d="m261.27216 246.73819l0 0c1.6264343 0.36528015 3.2395325 -0.6573944 3.6029968 -2.2842102l9.864929 -44.15599c0.17453003 -0.78123474 0.03164673 -1.6001434 -0.3972168 -2.276596c-0.42886353 -0.67645264 -1.108551 -1.1550293 -1.8895874 -1.3304443l0 0l0 0c-1.6264038 -0.3652954 -3.2395325 0.65737915 -3.6029663 2.2842102l-9.864929 44.155975c-0.36346436 1.626831 0.6603699 3.2417603 2.2867737 3.6070557z" fill-rule="evenodd"/><path fill="#ead1dc" d="m242.27206 257.74875l0 0c1.6264191 0.3652954 3.2395172 -0.65737915 3.6029663 -2.2842255l9.864944 -44.155975c0.17453003 -0.78123474 0.03164673 -1.6001587 -0.39720154 -2.276596c-0.42886353 -0.67645264 -1.1085663 -1.1550293 -1.8896027 -1.3304596l0 0l0 0c-1.6264191 -0.36528015 -3.2395172 0.6573944 -3.6029663 2.2842102l-9.864929 44.15599c-0.3634491 1.626831 0.66038513 3.2417603 2.286789 3.6070557z" fill-rule="evenodd"/><path fill="#ead1dc" d="m312.72064 167.11513l0 0c1.6264038 0.3652954 3.2395325 -0.65737915 3.6029663 -2.2842102l9.864929 -44.155983c0.17453003 -0.7812271 0.031677246 -1.6001434 -0.39718628 -2.276596c-0.42886353 -0.67645264 -1.1085815 -1.1550293 -1.8895874 -1.3304443l0 0l0 0c-1.6264343 -0.3652954 -3.2395325 0.65737915 -3.6029663 2.2842102l-9.86496 44.155983c-0.36343384 1.626831 0.6604004 3.2417603 2.2868042 3.6070404z" fill-rule="evenodd"/><path fill="#ead1dc" d="m317.33762 200.4242l0 0c1.6264343 0.36528015 3.2395325 -0.6573944 3.6029663 -2.2842102l9.86496 -44.15599c0.17453003 -0.78123474 0.03164673 -1.6001434 -0.3972168 -2.276596c-0.42886353 -0.67645264 -1.108551 -1.1550293 -1.8895874 -1.3304443l0 0l0 0c-1.6264343 -0.3652954 -3.2395325 0.65737915 -3.6029663 2.2842102l-9.864929 44.155975c-0.36346436 1.626831 0.6603699 3.2417603 2.2867737 3.6070557z" fill-rule="evenodd"/><path fill="#ead1dc" d="m456.9986 226.77226l0 0c1.6264038 0.3652954 3.2395325 -0.65737915 3.6029663 -2.2842102l9.864929 -44.15599c0.17453003 -0.7812195 0.031677246 -1.6001434 -0.39718628 -2.276596c-0.42886353 -0.67645264 -1.1085815 -1.1550293 -1.8896179 -1.3304443l0 0l0 0c-1.6264038 -0.3652954 -3.239502 0.65737915 -3.6029663 2.2842102l-9.864929 44.15599c-0.36343384 1.6268158 0.6604004 3.241745 2.2868042 3.6070404z" fill-rule="evenodd"/><path fill="#d5a6bd" d="m138.26225 125.168274l0 0c1.6264038 0.36528778 3.2395172 -0.6573868 3.6029663 -2.2842178l9.864929 -44.155983c0.17453003 -0.7812271 0.031661987 -1.6001511 -0.39720154 -2.276596c-0.42886353 -0.67645264 -1.1085663 -1.1550293 -1.8896027 -1.330452l0 0l0 0c-1.6264038 -0.36528778 -3.2395172 0.6573868 -3.6029663 2.2842102l-9.864929 44.15599c-0.3634491 1.6268234 0.66038513 3.2417526 2.2868042 3.607048z" fill-rule="evenodd"/><path fill="#d5a6bd" d="m169.10104 223.3306l0 0c1.6264191 0.36528015 3.2395172 -0.6573944 3.6029663 -2.2842102l9.864929 -44.15599c0.17454529 -0.78123474 0.031661987 -1.6001434 -0.39718628 -2.276596c-0.42886353 -0.67645264 -1.1085663 -1.1550293 -1.8896027 -1.3304596l0 0l0 0c-1.6264191 -0.36528015 -3.2395172 0.6573944 -3.6029663 2.2842102l-9.864929 44.15599c-0.3634491 1.626831 0.66038513 3.2417603 2.286789 3.6070557z" fill-rule="evenodd"/><path fill="#d5a6bd" d="m465.8819 261.921l0 0c1.6264038 0.3652649 3.239502 -0.65740967 3.6029663 -2.2842102l9.864929 -44.156006c0.17453003 -0.7812195 0.03164673 -1.6001434 -0.3972168 -2.276596c-0.428833 -0.67645264 -1.108551 -1.1550293 -1.8895874 -1.3304443l0 0l0 0c-1.6264038 -0.3652954 -3.239502 0.65737915 -3.6029663 2.2842102l-9.864929 44.15599c-0.36346436 1.626831 0.6603699 3.2417603 2.2868042 3.6070557z" fill-rule="evenodd"/><path fill="#ead1dc" d="m55.00421 82.699036l0 0c1.6264114 0.36528778 3.2395172 -0.6573868 3.6029663 -2.2842102l9.864929 -44.155987c0.17453766 -0.7812309 0.031661987 -1.6001472 -0.3971939 -2.2766c-0.42886353 -0.67645264 -1.1085663 -1.1550293 -1.8896027 -1.3304482l0 0l0 0c-1.6264114 -0.3652916 -3.2395134 0.6573868 -3.6029625 2.2842102l-9.864933 44.155987c-0.3634491 1.626831 0.6603813 3.2417603 2.2867966 3.607048z" fill-rule="evenodd"/><path fill="#d5a6bd" d="m88.98893 239.9806l0 0c1.6264114 0.3652954 3.2395172 -0.65737915 3.6029663 -2.2842102l9.864929 -44.155975c0.17453766 -0.78123474 0.031661987 -1.6001587 -0.39720154 -2.2766113c-0.4288559 -0.67645264 -1.1085663 -1.1550293 -1.889595 -1.3304443l0 0l0 0c-1.6264114 -0.36528015 -3.2395172 0.6573944 -3.6029663 2.2842102l-9.864929 44.15599c-0.3634491 1.626831 0.6603775 3.2417603 2.2867966 3.6070404z" fill-rule="evenodd"/><path fill="#ead1dc" d="m86.333206 209.18578l0 0c1.6264191 0.3652954 3.2395172 -0.65737915 3.602974 -2.2842102l9.864929 -44.15599c0.17453766 -0.7812195 0.031654358 -1.6001434 -0.39720154 -2.276596c-0.4288559 -0.67645264 -1.1085663 -1.1550293 -1.889595 -1.3304443l0 0l0 0c-1.6264114 -0.3652954 -3.2395172 0.65737915 -3.6029663 2.2842102l-9.864937 44.15599c-0.3634491 1.6268158 0.66038513 3.241745 2.2867966 3.6070404z" fill-rule="evenodd"/><path fill="#d5a6bd" d="m66.305695 80.82522l0 0c1.6264114 0.36528778 3.2395172 -0.6573868 3.6029663 -2.2842102l9.864929 -44.15599c0.17453766 -0.7812309 0.031661987 -1.6001472 -0.3971939 -2.2766c-0.4288559 -0.6764507 -1.1085663 -1.1550274 -1.8896027 -1.3304462l0 0l0 0c-1.6264114 -0.3652897 -3.2395096 0.6573868 -3.6029663 2.284212l-9.864929 44.155987c-0.3634491 1.6268234 0.66038513 3.2417526 2.2867966 3.607048z" fill-rule="evenodd"/><path fill="#ead1dc" d="m284.9633 101.27621l0 0c1.6264038 0.36528778 3.239502 -0.6573868 3.6029663 -2.2842102l9.864929 -44.15599c0.17453003 -0.7812271 0.03164673 -1.6001472 -0.39718628 -2.2766c-0.42886353 -0.6764488 -1.1085815 -1.1550255 -1.8896179 -1.3304443l0 0l0 0c-1.6264038 -0.3652916 -3.239502 0.65738297 -3.6029663 2.2842102l-9.864929 44.155987c-0.36343384 1.6268234 0.6604004 3.2417526 2.2868042 3.607048z" fill-rule="evenodd"/><path fill="#d5a6bd" d="m297.7257 90.23654l0 0c1.6264038 0.36528778 3.239502 -0.6573868 3.6029663 -2.2842102l9.864929 -44.155987c0.17453003 -0.7812309 0.03164673 -1.6001472 -0.39718628 -2.2766c-0.42886353 -0.67645264 -1.1085815 -1.1550293 -1.8896179 -1.3304482l0 0l0 0c-1.6264038 -0.36528778 -3.239502 0.6573868 -3.6029663 2.2842102l-9.864929 44.155987c-0.36343384 1.626831 0.6604004 3.2417603 2.2868042 3.607048z" fill-rule="evenodd"/><path fill="#d5a6bd" d="m359.5987 129.3738l0 0c1.6264038 0.3652954 3.239502 -0.65737915 3.6029663 -2.2842102l9.864929 -44.15599c0.17453003 -0.7812271 0.03164673 -1.6001434 -0.39718628 -2.276596c-0.42886353 -0.67645264 -1.1085815 -1.1550293 -1.8896179 -1.3304443l0 0l0 0c-1.6264038 -0.3652954 -3.239502 0.6573868 -3.6029663 2.2842102l-9.864929 44.155983c-0.36343384 1.626831 0.6604004 3.2417526 2.2868042 3.607048z" fill-rule="evenodd"/><path fill="#d5a6bd" d="m215.50424 140.67409l0 0c1.6264038 0.3652954 3.2395172 -0.6573944 3.6029663 -2.2842102l9.864929 -44.15599c0.17453003 -0.7812271 0.031661987 -1.6001434 -0.39720154 -2.276596c-0.42884827 -0.67645264 -1.1085663 -1.1550293 -1.8895874 -1.330452l0 0l0 0c-1.6264191 -0.36528778 -3.2395172 0.6573868 -3.6029816 2.2842102l-9.864929 44.155983c-0.3634491 1.626831 0.66038513 3.2417603 2.2868042 3.6070557z" fill-rule="evenodd"/><path fill="#ead1dc" d="m439.93552 86.01645l0 0c1.6264038 0.36528778 3.2395325 -0.6573868 3.6029663 -2.2842102l9.864929 -44.155987c0.17453003 -0.7812309 0.031677246 -1.6001472 -0.39718628 -2.2766c-0.42886353 -0.67645264 -1.1085815 -1.1550293 -1.8896179 -1.3304482l0 0l0 0c-1.6264038 -0.36528778 -3.239502 0.6573868 -3.6029663 2.2842102l-9.864929 44.155987c-0.36343384 1.626831 0.6604004 3.2417603 2.2868042 3.607048z" fill-rule="evenodd"/><path fill="#d5a6bd" d="m451.15683 80.82577l0 0c1.6264038 0.36528778 3.239502 -0.6573868 3.6029663 -2.2842102l9.864929 -44.155987c0.17453003 -0.7812309 0.03164673 -1.6001472 -0.3972168 -2.2766c-0.42886353 -0.67645264 -1.108551 -1.1550293 -1.8895874 -1.3304482l0 0l0 0c-1.6264038 -0.3652897 -3.2395325 0.6573868 -3.6029663 2.2842102l-9.864929 44.155987c-0.36346436 1.626831 0.6603699 3.2417603 2.2868042 3.607048z" fill-rule="evenodd"/><path fill="#ead1dc" d="m373.4022 218.47269l0 0c1.6264038 0.36528015 3.239502 -0.6573944 3.6029663 -2.2842102l9.864929 -44.15599c0.17453003 -0.78123474 0.03164673 -1.6001434 -0.3972168 -2.276596c-0.42886353 -0.67645264 -1.108551 -1.1550293 -1.8895874 -1.3304596l0 0l0 0c-1.6264038 -0.36528015 -3.2395325 0.6573944 -3.6029663 2.2842102l-9.864929 44.15599c-0.36346436 1.626831 0.6603699 3.2417603 2.2868042 3.6070557z" fill-rule="evenodd"/><path fill="#d5a6bd" d="m390.63843 206.39172l0 0c1.6264038 0.3652954 3.239502 -0.6573944 3.6029663 -2.2842102l9.864929 -44.15599c0.17453003 -0.78123474 0.03164673 -1.6001434 -0.3972168 -2.276596c-0.42886353 -0.67645264 -1.108551 -1.1550293 -1.8895874 -1.3304443l0 0l0 0c-1.6264038 -0.3652954 -3.2395325 0.65737915 -3.6029663 2.2842102l-9.864929 44.15599c-0.36346436 1.6268158 0.6603699 3.241745 2.2868042 3.6070404z" fill-rule="evenodd"/><path fill="#ead1dc" d="m570.43896 155.18044l0 0c1.6264648 0.36528015 3.239563 -0.6573944 3.6029663 -2.2842102l9.864929 -44.156c0.17456055 -0.7812271 0.031677246 -1.6001434 -0.39715576 -2.276596c-0.42889404 -0.67645264 -1.1085815 -1.1550293 -1.8895874 -1.3304443l0 0l0 0c-1.6264648 -0.3652954 -3.239563 0.6573868 -3.6029663 2.2842102l-9.864929 44.155983c-0.36346436 1.626831 0.66033936 3.2417603 2.2867432 3.6070557z" fill-rule="evenodd"/><path fill="#ead1dc" d="m657.27625 86.014824l0 0c1.6264038 0.3652954 3.239502 -0.6573868 3.6029663 -2.2842102l9.864929 -44.155987c0.17456055 -0.7812309 0.031677246 -1.6001472 -0.3972168 -2.2766c-0.428833 -0.67645264 -1.1085205 -1.1550255 -1.8895874 -1.3304443l0 0l0 0c-1.6264038 -0.3652916 -3.239502 0.65738297 -3.6029663 2.2842102l-9.864929 44.155983c-0.36346436 1.626831 0.6604004 3.2417603 2.2868042 3.607048z" fill-rule="evenodd"/><path fill="#ead1dc" d="m637.27966 115.78291l0 0c1.6264038 0.36528778 3.239502 -0.6573868 3.6029663 -2.2842102l9.864929 -44.15599c0.17449951 -0.7812271 0.031677246 -1.6001434 -0.3972168 -2.276596c-0.428833 -0.67645264 -1.1085815 -1.1550293 -1.8895874 -1.3304443l0 0l0 0c-1.6264038 -0.3652954 -3.239502 0.65737915 -3.6029663 2.2842102l-9.864929 44.155983c-0.36346436 1.626831 0.6604004 3.2417603 2.2868042 3.607048z" fill-rule="evenodd"/><path fill="#ead1dc" d="m607.9653 217.76392l0 0c1.6264038 0.3652954 3.239502 -0.6573944 3.6029663 -2.2842102l9.864929 -44.15599c0.17449951 -0.78123474 0.03161621 -1.6001434 -0.3972168 -2.276596c-0.428833 -0.67645264 -1.1085815 -1.1550293 -1.8895874 -1.3304443l0 0l0 0c-1.6264038 -0.3652954 -3.239502 0.65737915 -3.6029663 2.2842102l-9.864929 44.15599c-0.36346436 1.6268158 0.6604004 3.241745 2.2868042 3.6070404z" fill-rule="evenodd"/><path fill="#ead1dc" d="m707.07794 261.24475l0 0c1.6264038 0.3652954 3.239502 -0.65737915 3.6029663 -2.2842102l9.864929 -44.15599c0.17456055 -0.78123474 0.031677246 -1.6001434 -0.3972168 -2.276596c-0.428833 -0.67645264 -1.1085205 -1.1550293 -1.8895874 -1.3304443l0 0l0 0c-1.6264038 -0.3652954 -3.239502 0.65737915 -3.6029663 2.2842102l-9.864929 44.155975c-0.36346436 1.626831 0.6604004 3.2417603 2.2868042 3.6070557z" fill-rule="evenodd"/><path fill="#ead1dc" d="m688.0778 272.2553l0 0c1.6264648 0.3652954 3.239563 -0.65737915 3.6029663 -2.2842102l9.864929 -44.15599c0.17456055 -0.78123474 0.031677246 -1.6001434 -0.39715576 -2.276596c-0.42889404 -0.67645264 -1.1085815 -1.1550293 -1.8895874 -1.3304596l0 0l0 0c-1.6264648 -0.36528015 -3.239563 0.6573944 -3.6029663 2.2842102l-9.864929 44.15599c-0.36346436 1.626831 0.66033936 3.2417603 2.2867432 3.6070557z" fill-rule="evenodd"/><path fill="#ead1dc" d="m758.5264 181.6217l0 0c1.6264038 0.36528015 3.239502 -0.6573944 3.6029663 -2.2842255l9.864929 -44.155975c0.17456055 -0.78123474 0.031677246 -1.6001587 -0.3972168 -2.276596c-0.428833 -0.67645264 -1.1085815 -1.1550293 -1.8895874 -1.3304596l0 0l0 0c-1.6264038 -0.36528015 -3.239502 0.6573944 -3.6029663 2.2842102l-9.864929 44.15599c-0.36346436 1.626831 0.6604004 3.2417603 2.2868042 3.6070557z" fill-rule="evenodd"/><path fill="#ead1dc" d="m763.14343 214.93076l0 0c1.6264038 0.36528015 3.239502 -0.6573944 3.6029663 -2.2842102l9.864929 -44.15599c0.17449951 -0.78123474 0.03161621 -1.6001434 -0.3972168 -2.276596c-0.42889404 -0.67645264 -1.1085815 -1.1550293 -1.8895874 -1.3304443l0 0l0 0c-1.6264038 -0.3652954 -3.239563 0.65737915 -3.6029663 2.2842102l-9.864929 44.155975c-0.36346436 1.626831 0.66033936 3.2417603 2.2868042 3.6070557z" fill-rule="evenodd"/><path fill="#ead1dc" d="m902.8044 241.27882l0 0c1.6264038 0.3652954 3.239502 -0.65737915 3.6029663 -2.2842102l9.864929 -44.15599c0.17456055 -0.7812195 0.031677246 -1.6001434 -0.3972168 -2.276596c-0.428833 -0.67645264 -1.1085815 -1.1550293 -1.8895874 -1.3304443l0 0l0 0c-1.6264038 -0.3652954 -3.239502 0.65737915 -3.6029663 2.2842102l-9.864929 44.15599c-0.36346436 1.6268158 0.6604004 3.241745 2.2868042 3.6070404z" fill-rule="evenodd"/><path fill="#d5a6bd" d="m584.068 139.67484l0 0c1.6264648 0.36528015 3.239563 -0.6573944 3.6030273 -2.2842102l9.864929 -44.15599c0.17449951 -0.7812271 0.03161621 -1.6001434 -0.3972168 -2.276596c-0.42889404 -0.67645264 -1.1085815 -1.1550293 -1.8895874 -1.330452l0 0l0 0c-1.6264038 -0.36528778 -3.239563 0.6573868 -3.6029663 2.2842102l-9.864929 44.155983c-0.36346436 1.626831 0.66033936 3.2417603 2.2867432 3.6070557z" fill-rule="evenodd"/><path fill="#d5a6bd" d="m614.9068 237.83716l0 0c1.6264648 0.36528015 3.239563 -0.6573944 3.6029663 -2.2842102l9.864929 -44.15599c0.17456055 -0.78123474 0.031677246 -1.6001434 -0.39715576 -2.276596c-0.42889404 -0.67645264 -1.1085815 -1.1550293 -1.8895874 -1.3304596l0 0l0 0c-1.6264648 -0.36528015 -3.239563 0.6573944 -3.6029663 2.2842102l-9.86499 44.15599c-0.36340332 1.626831 0.6604004 3.2417603 2.2868042 3.6070557z" fill-rule="evenodd"/><path fill="#d5a6bd" d="m911.6877 276.42755l0 0c1.6264038 0.3652649 3.239502 -0.65740967 3.6029663 -2.2842102l9.864929 -44.156006c0.17449951 -0.7812195 0.03161621 -1.6001434 -0.3972168 -2.276596c-0.428833 -0.67645264 -1.1085815 -1.1550293 -1.8895874 -1.3304443l0 0l0 0c-1.6264038 -0.3652954 -3.239502 0.65737915 -3.6029663 2.2842102l-9.864929 44.15599c-0.36346436 1.626831 0.6604004 3.2417603 2.2868042 3.6070557z" fill-rule="evenodd"/><path fill="#ead1dc" d="m500.81 97.2056l0 0c1.6264038 0.36528778 3.239502 -0.6573868 3.6029663 -2.2842102l9.864929 -44.155987c0.17449951 -0.7812309 0.031677246 -1.6001472 -0.3972168 -2.2766c-0.428833 -0.67645264 -1.1085815 -1.1550293 -1.8895874 -1.3304482l0 0l0 0c-1.6264038 -0.36528778 -3.2395325 0.6573868 -3.6029663 2.2842102l-9.864929 44.155987c-0.36346436 1.626831 0.6603699 3.2417603 2.2868042 3.607048z" fill-rule="evenodd"/><path fill="#d5a6bd" d="m534.7947 254.48717l0 0c1.6264648 0.3652954 3.239563 -0.65737915 3.6029663 -2.2842102l9.864929 -44.155975c0.17456055 -0.78123474 0.031677246 -1.6001587 -0.39715576 -2.2766113c-0.42889404 -0.67645264 -1.1085815 -1.1550293 -1.8895874 -1.3304443l0 0l0 0c-1.6264648 -0.36528015 -3.239563 0.6573944 -3.6029663 2.2842102l-9.864929 44.15599c-0.36346436 1.626831 0.66033936 3.2417603 2.2867432 3.6070404z" fill-rule="evenodd"/><path fill="#ead1dc" d="m532.139 223.69234l0 0c1.6264038 0.3652954 3.239502 -0.65737915 3.6029663 -2.2842102l9.864929 -44.15599c0.17456055 -0.7812195 0.031677246 -1.6001434 -0.3972168 -2.276596c-0.428833 -0.67645264 -1.1085205 -1.1550293 -1.8895874 -1.3304443l0 0l0 0c-1.6264038 -0.3652954 -3.239502 0.65737915 -3.6029663 2.2842102l-9.864929 44.15599c-0.36346436 1.6268158 0.6604004 3.241745 2.2868042 3.6070404z" fill-rule="evenodd"/><path fill="#d5a6bd" d="m512.11145 95.33178l0 0c1.6264038 0.36528778 3.239563 -0.6573868 3.6029663 -2.2842102l9.864929 -44.15599c0.17456055 -0.7812271 0.031677246 -1.6001472 -0.39715576 -2.276596c-0.42889404 -0.67645264 -1.1085815 -1.1550293 -1.8896484 -1.3304482l0 0l0 0c-1.6264038 -0.3652916 -3.239502 0.65738297 -3.6029663 2.2842102l-9.864899 44.155987c-0.36346436 1.6268234 0.6603699 3.2417526 2.2867737 3.607048z" fill-rule="evenodd"/><path fill="#ead1dc" d="m730.76904 115.78277l0 0c1.6264038 0.36528778 3.239563 -0.6573868 3.6029663 -2.2842102l9.864929 -44.15599c0.17456055 -0.7812271 0.031677246 -1.6001434 -0.39715576 -2.276596c-0.42889404 -0.67645264 -1.1085815 -1.1550293 -1.8896484 -1.330452l0 0l0 0c-1.6264038 -0.36528778 -3.239502 0.6573868 -3.6029663 2.2842178l-9.864929 44.155983c-0.36340332 1.6268234 0.6604004 3.2417526 2.2868042 3.607048z" fill-rule="evenodd"/><path fill="#d5a6bd" d="m743.5315 104.7431l0 0c1.6264038 0.36528778 3.239502 -0.6573868 3.6029663 -2.2842102l9.864929 -44.155987c0.17449951 -0.7812309 0.03161621 -1.6001472 -0.3972168 -2.2766c-0.428833 -0.67645264 -1.1085815 -1.1550293 -1.8895874 -1.3304482l0 0l0 0c-1.6264038 -0.36528778 -3.239502 0.6573868 -3.6029663 2.284214l-9.864929 44.155983c-0.36346436 1.626831 0.6604004 3.2417603 2.2868042 3.607048z" fill-rule="evenodd"/><path fill="#d5a6bd" d="m805.4045 143.88036l0 0c1.6264038 0.3652954 3.239502 -0.65737915 3.6029663 -2.2842102l9.864929 -44.155983c0.17449951 -0.78123474 0.031677246 -1.6001511 -0.3972168 -2.2766037c-0.428833 -0.67645264 -1.1085815 -1.1550293 -1.8895874 -1.3304443l0 0l0 0c-1.6264038 -0.3652954 -3.239502 0.6573868 -3.6029663 2.2842102l-9.864929 44.15599c-0.36346436 1.6268158 0.6604004 3.241745 2.2868042 3.6070404z" fill-rule="evenodd"/><path fill="#d5a6bd" d="m661.31 155.18065l0 0c1.6264038 0.3652954 3.239563 -0.6573944 3.6029663 -2.2842102l9.864929 -44.15599c0.17456055 -0.7812271 0.031677246 -1.6001434 -0.39715576 -2.276596c-0.42889404 -0.67645264 -1.1085815 -1.1550293 -1.8896484 -1.330452l0 0l0 0c-1.6264038 -0.36528778 -3.239502 0.6573868 -3.6029663 2.2842102l-9.864929 44.156c-0.36340332 1.6268158 0.6604004 3.241745 2.2868042 3.6070404z" fill-rule="evenodd"/><path fill="#ead1dc" d="m885.7413 100.52301l0 0c1.6264038 0.36528778 3.239563 -0.6573868 3.6029663 -2.2842102l9.864929 -44.155987c0.17456055 -0.7812309 0.031677246 -1.6001472 -0.39715576 -2.2766c-0.42889404 -0.67645264 -1.1085815 -1.1550293 -1.8895874 -1.3304482l0 0l0 0c-1.6264648 -0.36528778 -3.239563 0.6573868 -3.6030273 2.284214l-9.864929 44.155983c-0.36340332 1.626831 0.6604004 3.2417603 2.2868042 3.607048z" fill-rule="evenodd"/><path fill="#d5a6bd" d="m896.9626 95.33233l0 0c1.6264038 0.36528778 3.239502 -0.6573868 3.6029663 -2.2842102l9.864929 -44.155987c0.17456055 -0.7812309 0.031677246 -1.6001472 -0.3972168 -2.2766c-0.428833 -0.67645264 -1.1085205 -1.1550293 -1.8895874 -1.3304482l0 0l0 0c-1.6264038 -0.3652916 -3.239502 0.6573868 -3.6029663 2.2842102l-9.864929 44.155987c-0.36346436 1.626831 0.6604004 3.2417603 2.2868042 3.607048z" fill-rule="evenodd"/><path fill="#ead1dc" d="m819.20795 232.97925l0 0c1.6264038 0.36528015 3.239502 -0.6573944 3.6029663 -2.2842102l9.864929 -44.15599c0.17456055 -0.78123474 0.031677246 -1.6001434 -0.3972168 -2.276596c-0.428833 -0.67645264 -1.1085205 -1.1550293 -1.8895874 -1.3304596l0 0l0 0c-1.6264038 -0.36528015 -3.239502 0.6573944 -3.6029663 2.2842255l-9.864929 44.155975c-0.36346436 1.626831 0.6604004 3.2417603 2.2868042 3.6070557z" fill-rule="evenodd"/><path fill="#d5a6bd" d="m836.4442 220.89828l0 0c1.6264038 0.3652954 3.239502 -0.6573944 3.6029663 -2.2842102l9.864929 -44.15599c0.17449951 -0.78123474 0.03161621 -1.6001434 -0.3972168 -2.276596c-0.428833 -0.67645264 -1.1085815 -1.1550293 -1.8895874 -1.3304443l0 0l0 0c-1.6264038 -0.3652954 -3.239502 0.65737915 -3.6029663 2.2842102l-9.864929 44.15599c-0.36346436 1.6268158 0.66033936 3.241745 2.2868042 3.6070404z" fill-rule="evenodd"/><path fill="#ead1dc" d="m92.83794 389.87335l0 0c1.6264191 0.3652954 3.2395172 -0.65740967 3.602974 -2.2842102l9.864929 -44.156006c0.17453766 -0.7812195 0.031654358 -1.6001282 -0.39720154 -2.2765808c-0.4288559 -0.67645264 -1.1085663 -1.1550293 -1.889595 -1.3304443l0 0l0 0c-1.6264114 -0.3652954 -3.2395172 0.65737915 -3.6029663 2.2842102l-9.864937 44.155975c-0.3634491 1.626831 0.66038513 3.2417603 2.2867966 3.6070557z" fill-rule="evenodd"/><path fill="#ead1dc" d="m179.67519 320.70773l0 0c1.6264191 0.3652954 3.2395172 -0.65737915 3.6029816 -2.2842102l9.864929 -44.155975c0.17453003 -0.78125 0.03164673 -1.6001587 -0.39720154 -2.2766113c-0.42886353 -0.67645264 -1.1085663 -1.1550293 -1.8896027 -1.3304443l0 0l0 0c-1.6264038 -0.3652954 -3.2395172 0.65737915 -3.6029663 2.2842102l-9.864929 44.156006c-0.3634491 1.6268005 0.66038513 3.2417297 2.286789 3.6070251z" fill-rule="evenodd"/><path fill="#ead1dc" d="m159.6786 350.47583l0 0c1.6264038 0.3652954 3.2395172 -0.65737915 3.6029663 -2.2842102l9.864929 -44.156006c0.17453003 -0.7812195 0.031661987 -1.6001282 -0.39720154 -2.2765808c-0.42884827 -0.67645264 -1.1085663 -1.1550293 -1.8895874 -1.3304443l0 0l0 0c-1.6264191 -0.3652954 -3.2395172 0.65737915 -3.6029816 2.2842102l-9.864929 44.155975c-0.3634491 1.626831 0.66038513 3.2417603 2.2868042 3.6070557z" fill-rule="evenodd"/><path fill="#ead1dc" d="m130.3642 452.45682l0 0c1.6264191 0.3652954 3.2395172 -0.65737915 3.6029663 -2.2842102l9.864944 -44.155975c0.17453003 -0.7812195 0.03164673 -1.6001587 -0.39720154 -2.2766113c-0.42886353 -0.67645264 -1.1085663 -1.1550293 -1.8896027 -1.3304443l0 0l0 0c-1.6264038 -0.3652954 -3.2395172 0.65737915 -3.6029663 2.2842102l-9.864929 44.156006c-0.3634491 1.6268005 0.66038513 3.2417297 2.286789 3.6070251z" fill-rule="evenodd"/><path fill="#ead1dc" d="m229.4769 495.93765l0 0c1.6264038 0.3652954 3.2395172 -0.65737915 3.6029663 -2.2842102l9.864929 -44.155975c0.17453003 -0.7812195 0.031661987 -1.6001587 -0.39720154 -2.2766113c-0.42884827 -0.67645264 -1.1085663 -1.1550293 -1.8896027 -1.3304443l0 0l0 0c-1.6264038 -0.3652954 -3.239502 0.65737915 -3.6029663 2.2842102l-9.864929 44.156006c-0.3634491 1.6268005 0.66038513 3.2417297 2.2868042 3.6070251z" fill-rule="evenodd"/><path fill="#ead1dc" d="m210.47679 506.9482l0 0c1.6264191 0.3652954 3.2395172 -0.65737915 3.6029663 -2.2842102l9.864929 -44.155975c0.17454529 -0.78125 0.031661987 -1.6001587 -0.39718628 -2.2766113c-0.42886353 -0.67645264 -1.1085663 -1.1550293 -1.8896027 -1.3304443l0 0l0 0c-1.6264191 -0.3652954 -3.2395172 0.65737915 -3.6029663 2.2842102l-9.864929 44.155975c-0.3634491 1.626831 0.66038513 3.2417603 2.286789 3.6070557z" fill-rule="evenodd"/><path fill="#ead1dc" d="m280.92538 416.3146l0 0c1.6264038 0.3652954 3.239502 -0.65737915 3.6029663 -2.2842102l9.864929 -44.155975c0.17453003 -0.78125 0.03164673 -1.6001587 -0.3972168 -2.2766113c-0.42886353 -0.67645264 -1.108551 -1.1550293 -1.8895874 -1.3304443l0 0l0 0c-1.6264038 -0.3652954 -3.2395325 0.65737915 -3.6029663 2.2842102l-9.864929 44.155975c-0.36346436 1.626831 0.6603699 3.2417603 2.2868042 3.6070557z" fill-rule="evenodd"/><path fill="#ead1dc" d="m285.54236 449.62366l0 0c1.6264038 0.3652954 3.239502 -0.65737915 3.6029663 -2.2842102l9.864929 -44.155975c0.17453003 -0.7812195 0.03164673 -1.6001587 -0.39718628 -2.2766113c-0.42886353 -0.67645264 -1.1085815 -1.1550293 -1.8896179 -1.3304443l0 0l0 0c-1.6264038 -0.3652954 -3.239502 0.65737915 -3.6029663 2.2842102l-9.864929 44.156006c-0.36343384 1.6268005 0.6604004 3.2417297 2.2868042 3.6070251z" fill-rule="evenodd"/><path fill="#ead1dc" d="m425.20334 475.97174l0 0c1.6264038 0.3652954 3.239502 -0.65737915 3.6029663 -2.2842102l9.864929 -44.155975c0.17453003 -0.78125 0.03164673 -1.6001587 -0.3972168 -2.2766113c-0.42886353 -0.67645264 -1.108551 -1.1550293 -1.8895874 -1.3304443l0 0l0 0c-1.6264038 -0.3652954 -3.2395325 0.65737915 -3.6029663 2.2842102l-9.864929 44.155975c-0.36346436 1.626831 0.6603699 3.2417603 2.2868042 3.6070557z" fill-rule="evenodd"/><path fill="#d5a6bd" d="m106.46697 374.36774l0 0c1.6264114 0.3652954 3.2395172 -0.65737915 3.6029663 -2.2842102l9.864929 -44.155975c0.17453766 -0.7812195 0.031661987 -1.6001587 -0.3971939 -2.2766113c-0.4288559 -0.67645264 -1.1085663 -1.1550293 -1.8896027 -1.3304443l0 0l0 0c-1.6264114 -0.3652954 -3.2395096 0.65737915 -3.6029663 2.2842102l-9.864929 44.156006c-0.3634491 1.6268005 0.66038513 3.2417297 2.2867966 3.6070251z" fill-rule="evenodd"/><path fill="#d5a6bd" d="m137.30577 472.53006l0 0c1.6264191 0.3652954 3.2395172 -0.65737915 3.6029663 -2.2842102l9.864929 -44.155975c0.17454529 -0.78125 0.031661987 -1.6001587 -0.39720154 -2.2766113c-0.42884827 -0.67645264 -1.1085663 -1.1550293 -1.8895874 -1.3304443l0 0l0 0c-1.6264191 -0.3652954 -3.2395172 0.65737915 -3.6029663 2.2842102l-9.864929 44.156006c-0.36346436 1.6268005 0.6603699 3.2417297 2.286789 3.6070251z" fill-rule="evenodd"/><path fill="#d5a6bd" d="m434.0866 511.12045l0 0c1.6264038 0.3652954 3.2395325 -0.65737915 3.6029663 -2.2842102l9.864929 -44.155975c0.17453003 -0.78125 0.031677246 -1.6001587 -0.39718628 -2.2766113c-0.42886353 -0.67645264 -1.1085815 -1.1550293 -1.8895874 -1.3304443l0 0l0 0c-1.6264343 -0.3652954 -3.2395325 0.65737915 -3.6029968 2.2842102l-9.864929 44.155975c-0.36343384 1.626831 0.6604004 3.2417603 2.2868042 3.6070557z" fill-rule="evenodd"/><path fill="#ead1dc" d="m23.208935 331.8985l0 0c1.6264133 0.3652954 3.2395172 -0.65737915 3.6029682 -2.2842102l9.864931 -44.155975c0.17453384 -0.7812195 0.031658173 -1.6001587 -0.39719772 -2.2766113c-0.4288597 -0.67645264 -1.1085663 -1.1550293 -1.8895988 -1.3304443l0 0l0 0c-1.6264114 -0.3652954 -3.2395172 0.65740967 -3.6029663 2.2842102l-9.864931 44.156006c-0.363451 1.626831 0.6603813 3.2417603 2.2867947 3.6070251z" fill-rule="evenodd"/><path fill="#d5a6bd" d="m57.193653 489.18008l0 0c1.6264114 0.3652954 3.2395172 -0.65737915 3.6029663 -2.2842102l9.864933 -44.155975c0.17453003 -0.78125 0.031654358 -1.6001587 -0.39720154 -2.2766113c-0.4288559 -0.67645264 -1.1085663 -1.1550293 -1.889595 -1.3304443l0 0l0 0c-1.6264114 -0.3652954 -3.2395172 0.65737915 -3.6029663 2.2842102l-9.864933 44.155975c-0.3634529 1.626831 0.6603813 3.2417603 2.2867966 3.6070557z" fill-rule="evenodd"/><path fill="#ead1dc" d="m54.537933 458.38525l0 0c1.6264153 0.3652954 3.2395172 -0.65737915 3.6029701 -2.2842102l9.864933 -44.155975c0.17453003 -0.78125 0.031654358 -1.6001587 -0.39720154 -2.2766113c-0.4288559 -0.67645264 -1.1085663 -1.1550293 -1.889595 -1.3304443l0 0l0 0c-1.6264191 -0.3652954 -3.239521 0.65737915 -3.6029701 2.2842102l-9.864933 44.155975c-0.3634491 1.626831 0.66038513 3.2417603 2.2867966 3.6070557z" fill-rule="evenodd"/><path fill="#d5a6bd" d="m34.510418 330.0247l0 0c1.6264153 0.3652954 3.2395172 -0.65737915 3.6029701 -2.2842102l9.864929 -44.155975c0.17453384 -0.78125 0.031658173 -1.6001587 -0.39719772 -2.2766113c-0.4288597 -0.67645264 -1.1085663 -1.1550293 -1.8895988 -1.3304443l0 0l0 0c-1.6264114 -0.3652954 -3.2395172 0.65737915 -3.6029663 2.2842102l-9.864933 44.155975c-0.3634491 1.626831 0.66038513 3.2417603 2.2867966 3.6070557z" fill-rule="evenodd"/><path fill="#ead1dc" d="m253.16801 350.47568l0 0c1.6264038 0.3652954 3.2395172 -0.65737915 3.602951 -2.2842102l9.864929 -44.155975c0.17456055 -0.78125 0.031677246 -1.6001587 -0.39718628 -2.2766113c-0.42886353 -0.67645264 -1.108551 -1.1550293 -1.8895874 -1.3304443l0 0l0 0c-1.6264343 -0.3652954 -3.2395325 0.65737915 -3.6029663 2.2842102l-9.864944 44.155975c-0.3634491 1.626831 0.66038513 3.2417603 2.2868042 3.6070557z" fill-rule="evenodd"/><path fill="#d5a6bd" d="m265.93042 339.436l0 0c1.6264343 0.3652954 3.2395325 -0.65737915 3.6029663 -2.2842102l9.864929 -44.155975c0.17456055 -0.7812195 0.031677246 -1.6001587 -0.39718628 -2.2766113c-0.42886353 -0.67645264 -1.1085815 -1.1550293 -1.8895874 -1.3304443l0 0l0 0c-1.6264343 -0.3652954 -3.2395325 0.65740967 -3.6029663 2.2842102l-9.864929 44.156006c-0.36346436 1.626831 0.6603699 3.2417603 2.2867737 3.6070251z" fill-rule="evenodd"/><path fill="#d5a6bd" d="m327.8034 378.57327l0 0c1.6264343 0.3652954 3.2395325 -0.65737915 3.6029663 -2.2842102l9.86496 -44.155975c0.17453003 -0.78125 0.03164673 -1.6001587 -0.3972168 -2.2766113c-0.42886353 -0.67645264 -1.108551 -1.1550293 -1.8895874 -1.3304443l0 0l0 0c-1.6264343 -0.3652954 -3.2395325 0.65737915 -3.6029663 2.2842102l-9.864929 44.155975c-0.36346436 1.626831 0.6603699 3.2417603 2.2867737 3.6070557z" fill-rule="evenodd"/><path fill="#d5a6bd" d="m183.70897 389.87357l0 0c1.6264038 0.3652954 3.2395172 -0.65737915 3.6029663 -2.2842102l9.864929 -44.156006c0.17453003 -0.7812195 0.031661987 -1.6001282 -0.39720154 -2.2765808c-0.42886353 -0.67645264 -1.1085663 -1.1550293 -1.8896027 -1.3304443l0 0l0 0c-1.6264038 -0.3652954 -3.2395172 0.65737915 -3.6029663 2.2842102l-9.864929 44.155975c-0.3634491 1.626831 0.66038513 3.2417603 2.2868042 3.6070557z" fill-rule="evenodd"/><path fill="#ead1dc" d="m408.14023 335.2159l0 0c1.6264343 0.3652954 3.2395325 -0.65737915 3.6029663 -2.2842102l9.86496 -44.155975c0.17453003 -0.7812195 0.03164673 -1.6001587 -0.3972168 -2.2766113c-0.42886353 -0.67645264 -1.108551 -1.1550293 -1.8895874 -1.3304443l0 0l0 0c-1.6264343 -0.3652954 -3.2395325 0.65740967 -3.6029663 2.2842102l-9.864929 44.156006c-0.36346436 1.626831 0.6603699 3.2417603 2.2867737 3.6070251z" fill-rule="evenodd"/><path fill="#d5a6bd" d="m419.36154 330.02524l0 0c1.6264038 0.3652954 3.239502 -0.65737915 3.6029663 -2.2842102l9.864929 -44.155975c0.17453003 -0.78125 0.03164673 -1.6001587 -0.39718628 -2.2766113c-0.42886353 -0.67645264 -1.1085815 -1.1550293 -1.8896179 -1.3304443l0 0l0 0c-1.6264038 -0.3652954 -3.239502 0.65737915 -3.6029663 2.2842102l-9.864929 44.155975c-0.36343384 1.626831 0.6604004 3.2417603 2.2868042 3.6070557z" fill-rule="evenodd"/><path fill="#ead1dc" d="m341.6069 467.67215l0 0c1.6264038 0.3652954 3.2395325 -0.65737915 3.6029663 -2.2842102l9.864929 -44.155975c0.17453003 -0.78125 0.031677246 -1.6001587 -0.39718628 -2.2766113c-0.42886353 -0.67645264 -1.1085815 -1.1550293 -1.8896179 -1.3304443l0 0l0 0c-1.6264038 -0.3652954 -3.239502 0.65737915 -3.6029663 2.2842102l-9.864929 44.156006c-0.36343384 1.6268005 0.6604004 3.2417297 2.2868042 3.6070251z" fill-rule="evenodd"/><path fill="#d5a6bd" d="m358.84314 455.5912l0 0c1.6264038 0.3652954 3.239502 -0.65737915 3.6029663 -2.2842102l9.864929 -44.155975c0.17453003 -0.7812195 0.03164673 -1.6001587 -0.39718628 -2.2766113c-0.42886353 -0.67645264 -1.1085815 -1.1550293 -1.8896179 -1.3304443l0 0l0 0c-1.6264038 -0.3652954 -3.239502 0.65737915 -3.6029663 2.2842102l-9.864929 44.156006c-0.36343384 1.6268005 0.6604004 3.2417297 2.2868042 3.6070251z" fill-rule="evenodd"/><path fill="#ead1dc" d="m565.5545 396.9626l0 0c1.6264038 0.3652954 3.239502 -0.65737915 3.6029663 -2.2842102l9.864929 -44.156006c0.17449951 -0.7812195 0.03161621 -1.6001282 -0.3972168 -2.2765808c-0.42889404 -0.67645264 -1.1085815 -1.1550293 -1.8895874 -1.3304443l0 0l0 0c-1.6264038 -0.3652954 -3.239563 0.65737915 -3.6029663 2.2842102l-9.864929 44.155975c-0.36346436 1.626831 0.66033936 3.2417603 2.2868042 3.6070557z" fill-rule="evenodd"/><path fill="#ead1dc" d="m652.3917 327.79697l0 0c1.6264038 0.3652954 3.239502 -0.65737915 3.6029663 -2.2842102l9.864929 -44.155975c0.17456055 -0.7812195 0.031677246 -1.6001587 -0.3972168 -2.2766113c-0.428833 -0.67645264 -1.1085205 -1.1550293 -1.8895874 -1.3304443l0 0l0 0c-1.6264038 -0.3652954 -3.239502 0.65737915 -3.6029663 2.2842102l-9.864929 44.156006c-0.36346436 1.626831 0.6604004 3.2417603 2.2868042 3.6070251z" fill-rule="evenodd"/><path fill="#ead1dc" d="m632.39514 357.56506l0 0c1.6264038 0.3652954 3.239502 -0.65737915 3.6029663 -2.2842102l9.864929 -44.155975c0.17456055 -0.78125 0.031677246 -1.6001587 -0.3972168 -2.2766113c-0.428833 -0.67645264 -1.1085205 -1.1550293 -1.8895874 -1.3304443l0 0l0 0c-1.6264038 -0.3652954 -3.239502 0.65737915 -3.6029663 2.2842102l-9.864929 44.155975c-0.36346436 1.626831 0.6604004 3.2417603 2.2868042 3.6070557z" fill-rule="evenodd"/><path fill="#ead1dc" d="m603.08075 459.54608l0 0c1.6264038 0.3652649 3.239502 -0.65740967 3.6029663 -2.2842407l9.864929 -44.155975c0.17449951 -0.7812195 0.031677246 -1.6001587 -0.3972168 -2.2765808c-0.428833 -0.67645264 -1.1085815 -1.1550293 -1.8895874 -1.3304749l0 0l0 0c-1.6264038 -0.3652649 -3.239502 0.65740967 -3.6029663 2.2842102l-9.864929 44.156006c-0.36346436 1.626831 0.6604004 3.2417603 2.2868042 3.6070557z" fill-rule="evenodd"/><path fill="#ead1dc" d="m702.1934 503.0269l0 0c1.6264038 0.3652954 3.239502 -0.65737915 3.6029663 -2.2842102l9.864929 -44.155975c0.17456055 -0.7812195 0.031677246 -1.6001587 -0.39715576 -2.2766113c-0.42889404 -0.67645264 -1.1085815 -1.1550293 -1.8896484 -1.3304443l0 0l0 0c-1.6264038 -0.3652954 -3.239502 0.65740967 -3.6029663 2.2842102l-9.864929 44.156006c-0.36340332 1.626831 0.6604004 3.2417603 2.2868042 3.6070251z" fill-rule="evenodd"/><path fill="#ead1dc" d="m683.19336 514.0375l0 0c1.6264038 0.3652954 3.239502 -0.65740967 3.6029663 -2.2842407l9.864929 -44.155975c0.17449951 -0.7812195 0.03161621 -1.6001587 -0.3972168 -2.2766113c-0.42889404 -0.67645264 -1.1085815 -1.1550293 -1.8895874 -1.3304443l0 0l0 0c-1.6264038 -0.3652954 -3.239563 0.65737915 -3.6029663 2.2842102l-9.864929 44.156006c-0.36346436 1.626831 0.66033936 3.2417603 2.2868042 3.6070557z" fill-rule="evenodd"/><path fill="#ead1dc" d="m753.6419 423.40384l0 0c1.6264038 0.3652954 3.239502 -0.65737915 3.6029663 -2.2842102l9.864929 -44.155975c0.17456055 -0.7812195 0.031677246 -1.6001587 -0.3972168 -2.2766113c-0.428833 -0.67645264 -1.1085205 -1.1550293 -1.8895874 -1.3304443l0 0l0 0c-1.6264038 -0.3652954 -3.239502 0.65737915 -3.6029663 2.2842102l-9.864929 44.156006c-0.36346436 1.6268005 0.6604004 3.2417297 2.2868042 3.6070251z" fill-rule="evenodd"/><path fill="#ead1dc" d="m758.2589 456.7129l0 0c1.6264038 0.3652954 3.239502 -0.65737915 3.6029663 -2.2842102l9.864929 -44.155975c0.17449951 -0.7812195 0.03161621 -1.6001587 -0.3972168 -2.2766113c-0.428833 -0.67645264 -1.1085815 -1.1550293 -1.8895874 -1.3304443l0 0l0 0c-1.6264038 -0.3652954 -3.239502 0.65740967 -3.6029663 2.2842102l-9.864929 44.156006c-0.36346436 1.626831 0.66033936 3.2417603 2.2868042 3.6070251z" fill-rule="evenodd"/><path fill="#ead1dc" d="m897.91986 483.06097l0 0c1.6264038 0.3652954 3.239502 -0.65737915 3.6029663 -2.2842102l9.864929 -44.155975c0.17456055 -0.78125 0.031677246 -1.6001587 -0.3972168 -2.2766113c-0.428833 -0.67645264 -1.1085205 -1.1550293 -1.8895874 -1.3304443l0 0l0 0c-1.6264038 -0.3652954 -3.239502 0.65737915 -3.6029663 2.2842102l-9.864929 44.155975c-0.36346436 1.626831 0.6604004 3.2417603 2.2868042 3.6070557z" fill-rule="evenodd"/><path fill="#d5a6bd" d="m579.18353 381.45697l0 0c1.6264038 0.3652954 3.239502 -0.65737915 3.6029663 -2.2842102l9.864929 -44.155975c0.17449951 -0.7812195 0.03161621 -1.6001587 -0.3972168 -2.2766113c-0.428833 -0.67645264 -1.1085815 -1.1550293 -1.8895874 -1.3304443l0 0l0 0c-1.6264038 -0.3652649 -3.239502 0.65740967 -3.6029663 2.2842102l-9.864929 44.156006c-0.36346436 1.626831 0.66033936 3.2417603 2.2868042 3.6070251z" fill-rule="evenodd"/><path fill="#d5a6bd" d="m610.0223 479.6193l0 0c1.6264648 0.3652954 3.239563 -0.65737915 3.6029663 -2.2842102l9.86499 -44.155975c0.17449951 -0.7812195 0.03161621 -1.6001587 -0.3972168 -2.2766113c-0.42889404 -0.67645264 -1.1085815 -1.1550293 -1.8895874 -1.3304443l0 0l0 0c-1.6264648 -0.3652954 -3.239563 0.65737915 -3.6029663 2.2842102l-9.864929 44.156006c-0.36346436 1.626831 0.66033936 3.2417603 2.2867432 3.6070251z" fill-rule="evenodd"/><path fill="#d5a6bd" d="m906.80316 518.2097l0 0c1.6264038 0.3652954 3.239502 -0.65740967 3.6029663 -2.2842407l9.864929 -44.155975c0.17449951 -0.78125 0.031677246 -1.6001587 -0.3972168 -2.2766113c-0.428833 -0.67645264 -1.1085815 -1.1550293 -1.8895874 -1.3304443l0 0l0 0c-1.6264038 -0.3652954 -3.239502 0.65737915 -3.6029663 2.2842102l-9.864929 44.156006c-0.36346436 1.626831 0.6604004 3.2417603 2.2868042 3.6070557z" fill-rule="evenodd"/><path fill="#ead1dc" d="m495.92548 338.98776l0 0c1.6264038 0.3652649 3.239502 -0.65740967 3.6029663 -2.2842102l9.864929 -44.156006c0.17453003 -0.7812195 0.03164673 -1.6001282 -0.39718628 -2.2765808c-0.42886353 -0.67645264 -1.1085815 -1.1550293 -1.8896179 -1.3304749l0 0l0 0c-1.6264038 -0.3652649 -3.239502 0.65740967 -3.6029663 2.2842102l-9.864929 44.156006c-0.36343384 1.626831 0.6604004 3.2417603 2.2868042 3.6070557z" fill-rule="evenodd"/><path fill="#d5a6bd" d="m529.9102 496.26932l0 0c1.6264038 0.3652954 3.239502 -0.65737915 3.6029663 -2.2842102l9.864929 -44.155975c0.17449951 -0.7812195 0.03161621 -1.6001587 -0.3972168 -2.2766113c-0.42889404 -0.67645264 -1.1085815 -1.1550293 -1.8895874 -1.3304443l0 0l0 0c-1.6264038 -0.3652954 -3.239563 0.65737915 -3.6029663 2.2842102l-9.864929 44.156006c-0.36346436 1.6268005 0.66033936 3.2417297 2.2868042 3.6070251z" fill-rule="evenodd"/><path fill="#ead1dc" d="m527.25446 465.4745l0 0c1.6264038 0.3652954 3.239502 -0.65737915 3.6029663 -2.2842102l9.864929 -44.155975c0.17456055 -0.78125 0.031677246 -1.6001587 -0.39715576 -2.2766113c-0.42889404 -0.67645264 -1.1085815 -1.1550293 -1.8896484 -1.3304443l0 0l0 0c-1.6264038 -0.3652954 -3.239502 0.65737915 -3.6029663 2.2842102l-9.864929 44.155975c-0.36340332 1.626831 0.6604004 3.2417603 2.2868042 3.6070557z" fill-rule="evenodd"/><path fill="#d5a6bd" d="m507.22696 337.11392l0 0c1.6264038 0.3652954 3.239502 -0.65737915 3.6029663 -2.2842102l9.864899 -44.155975c0.17456055 -0.7812195 0.031677246 -1.6001587 -0.39715576 -2.2766113c-0.42889404 -0.67645264 -1.1085815 -1.1550293 -1.8895874 -1.3304443l0 0l0 0c-1.6264648 -0.3652954 -3.239563 0.65737915 -3.6029663 2.2842102l-9.86496 44.156006c-0.36343384 1.6268005 0.6604004 3.2417297 2.2868042 3.6070251z" fill-rule="evenodd"/><path fill="#ead1dc" d="m725.8845 357.5649l0 0c1.6264648 0.3652954 3.239563 -0.65737915 3.6029663 -2.2842102l9.864929 -44.155975c0.17456055 -0.7812195 0.031677246 -1.6001587 -0.39715576 -2.2766113c-0.42889404 -0.67645264 -1.1085815 -1.1550293 -1.8895874 -1.3304443l0 0l0 0c-1.6264648 -0.3652954 -3.239563 0.65737915 -3.6029663 2.2842102l-9.864929 44.156006c-0.36346436 1.6268005 0.66033936 3.2417297 2.2867432 3.6070251z" fill-rule="evenodd"/><path fill="#d5a6bd" d="m738.647 346.52527l0 0c1.6264038 0.3652649 3.239502 -0.65740967 3.6029663 -2.2842102l9.864929 -44.156006c0.17449951 -0.7812195 0.031677246 -1.6001282 -0.3972168 -2.2765808c-0.428833 -0.67645264 -1.1085815 -1.1550293 -1.8895874 -1.3304749l0 0l0 0c-1.6264038 -0.3652649 -3.239502 0.65740967 -3.6029663 2.2842407l-9.864929 44.155975c-0.36346436 1.626831 0.6604004 3.2417603 2.2868042 3.6070557z" fill-rule="evenodd"/><path fill="#d5a6bd" d="m800.51996 385.6625l0 0c1.6264038 0.3652954 3.239502 -0.65737915 3.6029663 -2.2842102l9.864929 -44.155975c0.17456055 -0.78125 0.031677246 -1.6001587 -0.3972168 -2.2766113c-0.428833 -0.67645264 -1.1085205 -1.1550293 -1.8895874 -1.3304443l0 0l0 0c-1.6264038 -0.3652954 -3.239502 0.65737915 -3.6029663 2.2842102l-9.864929 44.155975c-0.36346436 1.626831 0.6604004 3.2417603 2.2868042 3.6070557z" fill-rule="evenodd"/><path fill="#d5a6bd" d="m656.4255 396.9628l0 0c1.6264648 0.3652954 3.239563 -0.65737915 3.6029663 -2.2842102l9.864929 -44.155975c0.17456055 -0.78125 0.031677246 -1.6001587 -0.39715576 -2.2766113c-0.42889404 -0.67645264 -1.1085815 -1.1550293 -1.8895874 -1.3304443l0 0l0 0c-1.6264648 -0.3652954 -3.239563 0.65737915 -3.6029663 2.2842102l-9.864929 44.155975c-0.36346436 1.626831 0.66033936 3.2417603 2.2867432 3.6070557z" fill-rule="evenodd"/><path fill="#ead1dc" d="m880.85675 342.30518l0 0c1.6264648 0.3652649 3.239563 -0.65740967 3.6029663 -2.2842102l9.864929 -44.156006c0.17456055 -0.7812195 0.031677246 -1.6001282 -0.39715576 -2.2765808c-0.42889404 -0.67645264 -1.1085815 -1.1550293 -1.8895874 -1.3304749l0 0l0 0c-1.6264648 -0.3652649 -3.239563 0.65740967 -3.6029663 2.2842407l-9.864929 44.155975c-0.36346436 1.626831 0.66033936 3.2417603 2.2867432 3.6070557z" fill-rule="evenodd"/><path fill="#d5a6bd" d="m892.07806 337.11447l0 0c1.6264038 0.3652954 3.239502 -0.65737915 3.6029663 -2.2842102l9.864929 -44.155975c0.17456055 -0.7812195 0.031677246 -1.6001587 -0.39715576 -2.2766113c-0.42889404 -0.67645264 -1.1085815 -1.1550293 -1.8896484 -1.3304443l0 0l0 0c-1.6264038 -0.3652954 -3.239502 0.65737915 -3.6029663 2.2842102l-9.864929 44.156006c-0.36340332 1.6268005 0.6604004 3.2417297 2.2868042 3.6070251z" fill-rule="evenodd"/><path fill="#ead1dc" d="m814.3234 474.76138l0 0c1.6264038 0.3652954 3.239502 -0.65737915 3.6029663 -2.2842102l9.864929 -44.155975c0.17456055 -0.7812195 0.031677246 -1.6001587 -0.39715576 -2.2766113c-0.42889404 -0.67645264 -1.1085815 -1.1550293 -1.8896484 -1.3304443l0 0l0 0c-1.6264038 -0.3652954 -3.239502 0.65740967 -3.6029663 2.2842102l-9.864929 44.156006c-0.36340332 1.626831 0.6604004 3.2417603 2.2868042 3.6070251z" fill-rule="evenodd"/><path fill="#d5a6bd" d="m831.5597 462.68045l0 0c1.6264038 0.3652649 3.239502 -0.65740967 3.6029663 -2.2842407l9.864929 -44.155975c0.17449951 -0.7812195 0.03161621 -1.6001587 -0.3972168 -2.2765808c-0.428833 -0.67645264 -1.1085815 -1.1550293 -1.8895874 -1.3304749l0 0l0 0c-1.6264038 -0.3652649 -3.239502 0.65740967 -3.6029663 2.2842102l-9.864929 44.156006c-0.36346436 1.626831 0.6604004 3.2417603 2.2868042 3.6070557z" fill-rule="evenodd"/></g></svg>