<svg version="1.1" viewBox="0.0 0.0 960.0 540.0" fill="none" stroke="none" stroke-linecap="square" stroke-miterlimit="10" xmlns:xlink="http://www.w3.org/1999/xlink" xmlns="http://www.w3.org/2000/svg"><clipPath id="p.0"><path d="m0 0l960.0 0l0 540.0l-960.0 0l0 -540.0z" clip-rule="nonzero"/></clipPath><g clip-path="url(#p.0)"><path fill="#050133" d="m0 0l960.0 0l0 540.0l-960.0 0z" fill-rule="evenodd"/><path fill="#ead1dc" d="m199.1579 263.75998l0 0c3.2963104 0.7392578 6.5653076 -1.3341675 7.3014984 -4.631195l19.979675 -89.4778c0.35353088 -1.5832825 0.06376648 -3.2427368 -0.80555725 -4.613312c-0.869339 -1.3705902 -2.2470093 -2.3400116 -3.829956 -2.6950226l0 0l0 0c-3.2963104 -0.73928833 -6.5653076 1.3341675 -7.3014984 4.6311646l-19.979675 89.47781c-0.7361908 3.296997 1.3392029 6.5690613 4.6355133 7.3083496z" fill-rule="evenodd"/><path fill="#ead1dc" d="m375.1673 123.56845l0 0c3.2963257 0.7392807 6.5653076 -1.3341675 7.3015137 -4.631172l19.979675 -89.47781c0.35351562 -1.5832767 0.06375122 -3.2427368 -0.8055725 -4.6133156c-0.86932373 -1.3705788 -2.2469788 -2.3400059 -3.8299255 -2.6950207l0 0l0 0c-3.2963257 -0.7392788 -6.5653076 1.3341675 -7.3015137 4.6311703l-19.979675 89.47781c-0.73620605 3.2970047 1.3392029 6.5690613 4.635498 7.3083344z" fill-rule="evenodd"/><path fill="#ead1dc" d="m334.63644 183.90529l0 0c3.2963257 0.7392731 6.5653076 -1.3341675 7.3015137 -4.63118l19.979675 -89.477806c0.35351562 -1.5832825 0.06375122 -3.2427368 -0.8055725 -4.6133194c-0.86932373 -1.370575 -2.2470093 -2.340004 -3.829956 -2.6950226l0 0l0 0c-3.2962952 -0.7392731 -6.5653076 1.3341675 -7.301483 4.631172l-19.979675 89.47782c-0.73620605 3.296997 1.3392029 6.569046 4.635498 7.3083344z" fill-rule="evenodd"/><path fill="#ead1dc" d="m275.21945 390.6102l0 0c3.2962952 0.73928833 6.5653076 -1.334137 7.301483 -4.6311646l19.979675 -89.47781c0.35354614 -1.5832825 0.06378174 -3.2427368 -0.8055725 -4.613312c-0.86932373 -1.370575 -2.2469788 -2.3399963 -3.8299255 -2.6950073l0 0l0 0c-3.2963257 -0.73928833 -6.5653076 1.3341675 -7.3015137 4.6311646l-19.979675 89.47781c-0.73617554 3.296997 1.3392029 6.5690613 4.6355286 7.308319z" fill-rule="evenodd"/><path fill="#ead1dc" d="m476.1098 478.74136l0 0c3.2962952 0.73928833 6.5653076 -1.3341675 7.301483 -4.6311646l19.979675 -89.47781c0.35354614 -1.5832825 0.06378174 -3.2427368 -0.805542 -4.6133423c-0.86935425 -1.370575 -2.2470093 -2.3399963 -3.829956 -2.6950073l0 0l0 0c-3.2963257 -0.73928833 -6.5653076 1.3341675 -7.3015137 4.6311646l-19.979675 89.47781c-0.73617554 3.2970276 1.3392029 6.5690613 4.6355286 7.3083496z" fill-rule="evenodd"/><path fill="#ead1dc" d="m437.59872 501.05862l0 0c3.2962952 0.7392578 6.5653076 -1.3341675 7.301483 -4.6311646l19.979675 -89.477844c0.35354614 -1.583252 0.06378174 -3.2427368 -0.8055725 -4.613312c-0.86932373 -1.370575 -2.2469788 -2.3399963 -3.8299255 -2.6950073l0 0l0 0c-3.2963257 -0.73928833 -6.5653076 1.3341675 -7.3015137 4.6311646l-19.979675 89.47781c-0.73617554 3.296997 1.3392029 6.5690613 4.6355286 7.3083496z" fill-rule="evenodd"/><path fill="#ead1dc" d="m580.39014 317.35367l0 0c3.2962646 0.73928833 6.5653076 -1.3341675 7.3014526 -4.6311646l19.979675 -89.47781c0.35357666 -1.5832672 0.06378174 -3.2427368 -0.805542 -4.613312c-0.86932373 -1.370575 -2.2470093 -2.3400116 -3.829956 -2.6950226l0 0l0 0c-3.2963257 -0.7392731 -6.5653076 1.3341675 -7.3015137 4.63118l-19.979675 89.47781c-0.736145 3.296997 1.3392334 6.5690613 4.635559 7.308319z" fill-rule="evenodd"/><path fill="#ead1dc" d="m589.7482 384.86768l0 0c3.2963257 0.73928833 6.5653076 -1.3341675 7.3015137 -4.6311646l19.979675 -89.47781c0.35351562 -1.5832825 0.0637207 -3.2427368 -0.805603 -4.613312c-0.86932373 -1.370575 -2.2470093 -2.3399963 -3.829956 -2.6950073l0 0l0 0c-3.2962646 -0.73928833 -6.5653076 1.3341675 -7.3014526 4.6311646l-19.979675 89.47781c-0.73620605 3.296997 1.3391724 6.5690613 4.635498 7.308319z" fill-rule="evenodd"/><path fill="#ead1dc" d="m872.8254 438.2725l0 0c3.2963257 0.73928833 6.5653076 -1.3341675 7.3015137 -4.6311646l19.979675 -89.47781c0.35351562 -1.5832825 0.06378174 -3.2427368 -0.805542 -4.613312c-0.86932373 -1.370575 -2.2470093 -2.3399963 -3.829956 -2.6950073l0 0l0 0c-3.2963257 -0.73928833 -6.5653076 1.3341675 -7.3015137 4.6311646l-19.979675 89.47781c-0.73620605 3.296997 1.3392334 6.5690613 4.635498 7.308319z" fill-rule="evenodd"/><path fill="#d5a6bd" d="m226.78242 232.33173l0 0c3.2963104 0.73928833 6.5653076 -1.3341675 7.3014984 -4.6311646l19.979675 -89.47781c0.35353088 -1.5832825 0.06376648 -3.2427368 -0.80555725 -4.613312c-0.869339 -1.3705902 -2.2470093 -2.3400116 -3.829956 -2.6950226l0 0l0 0c-3.2963104 -0.73928833 -6.5653076 1.3341675 -7.3014984 4.6311646l-19.979675 89.47781c-0.7361908 3.2970123 1.3392029 6.5690613 4.6355133 7.3083344z" fill-rule="evenodd"/><path fill="#d5a6bd" d="m289.2892 431.2966l0 0c3.2963257 0.7392578 6.5653076 -1.3341675 7.3015137 -4.631195l19.979675 -89.47781c0.35351562 -1.583252 0.06375122 -3.2427368 -0.8055725 -4.613312c-0.86932373 -1.370575 -2.2470093 -2.3399963 -3.829956 -2.6950073l0 0l0 0c-3.2962952 -0.73928833 -6.5653076 1.3341675 -7.301483 4.6311646l-19.979675 89.47781c-0.73620605 3.296997 1.3392029 6.5690613 4.635498 7.3083496z" fill-rule="evenodd"/><path fill="#d5a6bd" d="m890.8308 509.51532l0 0c3.2963257 0.7392578 6.5653076 -1.3341675 7.3015137 -4.631195l19.979675 -89.47781c0.35351562 -1.583252 0.06378174 -3.2427368 -0.805542 -4.613312c-0.86932373 -1.370575 -2.2470093 -2.3399963 -3.829956 -2.6950073l0 0l0 0c-3.2963257 -0.73928833 -6.5653076 1.3341675 -7.3015137 4.6311646l-19.979675 89.47781c-0.73620605 3.296997 1.3392334 6.5690613 4.635498 7.3083496z" fill-rule="evenodd"/><path fill="#ead1dc" d="m58.027683 146.25099l0 0c3.2963142 0.7392731 6.5653114 -1.3341675 7.301502 -4.63118l19.979675 -89.47781c0.35353088 -1.5832748 0.06375885 -3.2427368 -0.8055649 -4.6133156c-0.86932373 -1.3705788 -2.246994 -2.340004 -3.8299408 -2.6950188l0 0l0 0c-3.296318 -0.7392807 -6.5653076 1.3341675 -7.301506 4.6311684l-19.979671 89.47782c-0.7361946 3.296997 1.3391914 6.569046 4.6355057 7.3083344z" fill-rule="evenodd"/><path fill="#d5a6bd" d="m126.910904 465.04446l0 0c3.2963104 0.73928833 6.5653076 -1.3341675 7.3014984 -4.6311646l19.979675 -89.47781c0.35353088 -1.5832825 0.06376648 -3.2427368 -0.80555725 -4.6133423c-0.86932373 -1.370575 -2.246994 -2.3399963 -3.8299408 -2.6950073l0 0l0 0c-3.2963104 -0.73928833 -6.5653076 1.3341675 -7.3014984 4.6311646l-19.979683 89.47781c-0.7361908 3.296997 1.3391953 6.5690613 4.6355057 7.3083496z" fill-rule="evenodd"/><path fill="#ead1dc" d="m121.52806 402.62653l0 0c3.296318 0.7392578 6.5653076 -1.3341675 7.3014984 -4.631195l19.979675 -89.47781c0.35353088 -1.583252 0.06376648 -3.2427368 -0.80555725 -4.613312c-0.86932373 -1.370575 -2.246994 -2.3399963 -3.8299408 -2.6950073l0 0l0 0c-3.2963104 -0.73928833 -6.5653076 1.3341675 -7.3014984 4.6311646l-19.979683 89.47781c-0.7361908 3.296997 1.3391953 6.5690613 4.6355057 7.3083496z" fill-rule="evenodd"/><path fill="#d5a6bd" d="m80.934525 142.45296l0 0c3.296318 0.7392731 6.5653076 -1.3341675 7.301506 -4.63118l19.979675 -89.47781c0.35353088 -1.5832748 0.06375885 -3.242733 -0.8055649 -4.6133156c-0.86932373 -1.3705788 -2.2470016 -2.340004 -3.8299408 -2.6950188l0 0l0 0c-3.296318 -0.7392807 -6.5653076 1.3341675 -7.301506 4.631172l-19.979675 89.477806c-0.7361908 3.2970123 1.3391953 6.5690613 4.6355057 7.3083496z" fill-rule="evenodd"/><path fill="#ead1dc" d="m524.129 183.90498l0 0c3.2963257 0.73928833 6.5653076 -1.3341675 7.3015137 -4.6311646l19.979675 -89.47781c0.35351562 -1.5832825 0.06378174 -3.2427368 -0.805542 -4.6133194c-0.86932373 -1.370575 -2.2470093 -2.340004 -3.829956 -2.6950226l0 0l0 0c-3.2963257 -0.7392731 -6.5653076 1.3341675 -7.3015137 4.631172l-19.979675 89.47781c-0.73620605 3.2970123 1.3391724 6.5690613 4.635498 7.3083344z" fill-rule="evenodd"/><path fill="#d5a6bd" d="m549.997 161.52873l0 0c3.2963257 0.73928833 6.5653076 -1.3341675 7.3015137 -4.6311646l19.979675 -89.47782c0.35351562 -1.5832748 0.06378174 -3.2427368 -0.805542 -4.613312c-0.86932373 -1.3705788 -2.2470093 -2.3400078 -3.829956 -2.6950226l0 0l0 0c-3.2963257 -0.7392807 -6.5653076 1.3341675 -7.3015137 4.631172l-19.979675 89.47781c-0.73620605 3.296997 1.3392334 6.5690613 4.635498 7.3083344z" fill-rule="evenodd"/><path fill="#d5a6bd" d="m675.4067 240.8559l0 0c3.2963257 0.7392731 6.5653076 -1.3341675 7.3015137 -4.6311646l19.979675 -89.47783c0.35351562 -1.5832672 0.0637207 -3.2427368 -0.805603 -4.613312c-0.86932373 -1.370575 -2.2469482 -2.3399963 -3.829895 -2.6950226l0 0l0 0c-3.2963257 -0.7392731 -6.5653076 1.3341675 -7.3015137 4.63118l-19.979675 89.47781c-0.73620605 3.296997 1.3391724 6.5690613 4.635498 7.3083344z" fill-rule="evenodd"/><path fill="#d5a6bd" d="m383.34332 263.7604l0 0c3.2962952 0.73928833 6.5653076 -1.3341675 7.301483 -4.6311646l19.979675 -89.47781c0.35354614 -1.5832825 0.06378174 -3.2427368 -0.8055725 -4.613312c-0.86932373 -1.3705902 -2.2469788 -2.3400116 -3.8299255 -2.6950226l0 0l0 0c-3.2963257 -0.73928833 -6.5653076 1.3341675 -7.3015137 4.6311646l-19.979675 89.47783c-0.73617554 3.296997 1.3392029 6.569031 4.6355286 7.308319z" fill-rule="evenodd"/><path fill="#ead1dc" d="m838.2404 152.97504l0 0c3.2963257 0.73928833 6.5653076 -1.3341675 7.3015137 -4.6311646l19.979675 -89.47781c0.35351562 -1.5832787 0.06378174 -3.2427368 -0.805542 -4.6133156c-0.86932373 -1.3705788 -2.2470093 -2.3400078 -3.829956 -2.6950226l0 0l0 0c-3.2963257 -0.7392769 -6.5653076 1.3341675 -7.3015137 4.631172l-19.979675 89.47781c-0.73620605 3.2970123 1.3392334 6.5690613 4.635498 7.3083344z" fill-rule="evenodd"/><path fill="#d5a6bd" d="m860.98474 142.45407l0 0c3.2963257 0.7392731 6.5653076 -1.3341675 7.3015137 -4.63118l19.979675 -89.47781c0.35351562 -1.5832748 0.06378174 -3.2427368 -0.805542 -4.6133156c-0.86932373 -1.3705788 -2.2470093 -2.340004 -3.829956 -2.6950188l0 0l0 0c-3.2963257 -0.7392807 -6.5653076 1.3341675 -7.3015137 4.631172l-19.979675 89.47781c-0.73620605 3.296997 1.3391724 6.569046 4.635498 7.3083344z" fill-rule="evenodd"/><path fill="#ead1dc" d="m703.38477 421.4501l0 0c3.2963257 0.73928833 6.5653076 -1.3341675 7.3015137 -4.6311646l19.979675 -89.47781c0.35357666 -1.5832825 0.06378174 -3.2427368 -0.805542 -4.613312c-0.86932373 -1.370575 -2.2470093 -2.3400269 -3.829956 -2.6950378l0 0l0 0c-3.2963257 -0.7392578 -6.5653076 1.3341675 -7.3015137 4.631195l-19.979675 89.47781c-0.736145 3.296997 1.3392334 6.569031 4.635498 7.308319z" fill-rule="evenodd"/><path fill="#d5a6bd" d="m738.32074 396.96326l0 0c3.2962646 0.73928833 6.5653076 -1.3341675 7.3014526 -4.6311646l19.979675 -89.47781c0.35357666 -1.5832825 0.06378174 -3.2427368 -0.805542 -4.613312c-0.86932373 -1.3706055 -2.2470093 -2.3400269 -3.829956 -2.6950378l0 0l0 0c-3.2963257 -0.73928833 -6.5653076 1.3341675 -7.3015137 4.6311646l-19.979675 89.47781c-0.736145 3.2970276 1.3392334 6.5690613 4.635559 7.3083496z" fill-rule="evenodd"/></g></svg>